<!-- Logo: Claude Paradin, Devises heroïques (1557), p. 181. Public domain. -->
<svg xmlns="http://www.w3.org/2000/svg" xml:space="preserve" fill-rule="evenodd" stroke-linejoin="round" stroke-miterlimit="2" clip-rule="evenodd" viewBox="0 0 2723 2472"><path fill="#fff" d="M137 2448c-14-13-27-29-30-34q-7-12 5-5 9 6 82 2c71-3 72-3 61-11-47-35-48-39-13-37 25 2 25 1 23-10l-3-39-1-25-32-11c-18-6-36-11-40-11q-7-1-15-9c-8-9-21-60-16-68 1-2 11-8 22-13 17-7 32-9 92-8l72 1 38-18c21-10 47-20 59-21s44-6 71-12c71-14 106-13 137 4 13 8 39 19 57 25 19 6 36 12 38 14q6 4 23 6 17 4 21 10c3 9 30 25 51 31q16 4 25-2c4-4 13-7 19-7 15 0 16-2 6-31-8-23-8-28-2-40 11-20 55-55 83-65 34-11 79-9 101 7q15 10 19 6 6-9 43-14l27-4q6 0 17 10c14 15 17 15 24-1a254 254 0 0 1 71-91c0-16 82-49 119-49q13 0 17-6c4-6-13-20-17-14-1 2-51 4-110 4h-107l-36 17a87 87 0 0 1-40 13q-9-10 18-16c22-5 41-21 49-39 16-39 3-41-28-2-23 28-57 55-78 60q-11 3-12 12c0 20-59 2-91-28-12-11-16-12-38-9-14 1-40 7-56 13l-31 10-38-10c-21-6-50-11-64-10q-62 0-70-48-4-16-8-16c-8 5-42-23-56-46-8-13-17-23-19-23s-21 7-41 16c-26 12-43 17-61 17-21 0-49 10-96 34-11 6-107 5-129-1-10-3-22-9-26-13-14-14-34-25-37-20-5 8-39-1-77-21-28-15-70-57-75-75-2-12-17-45-29-65a306 306 0 0 1 23-181c7-13 14-30 15-37 2-7 8-15 12-16q9-3 17-13a377 377 0 0 0 90-93c8-12 24-26 34-32l33-19c27-15 110-20 263-16 17 0 23 4 62 41 65 62 83 73 118 74 26 0 70-14 70-22q0-5-7-11-6-6-12-20c-5-13-4-15 12-36 10-12 25-29 34-37q14-15 18-35c2-11 7-23 10-26q6-6 7-10c0-9 27-38 44-47 10-5 26-9 36-9s20-2 22-4c4-4 14-5 61-8 23-1 42 0 43 2a186 186 0 0 0 56 38c0 5 23 10 27 6q3-3 11-4l20-1c6 0 17-5 24-12 6-6 24-13 39-17 27-6 28-6 35 4q7 9 14 10 6 1 8 6 2 6 30 6c26 0 28-1 46-21 10-11 22-28 26-36 3-8 12-22 17-31 9-15 10-25 11-67 0-67-3-76-23-76l-40 4c-14 3-75 6-136 8-88 1-111 3-112 8-1 4-11 10-22 13s-29 12-41 19l-35 19c-6 3-19 13-28 20-41 38-63 51-92 54-44 4-60-7-90-63q-8-17-15-7-4 4-22 0c-16-4-21-3-31 3q-12 8-13 7-10-22-20-22c-15-3-4 18 13 24 8 3-11 23-39 43q-19 13-16 17 11 2 57-41c26-24 35-28 35-16 0 9-13 24-53 60-21 19-29 22-81 29q-16 1-49-11c-26-9-43-12-81-13-53-2-86-6-82-12q1-4-8-6c-14-4-9-15 8-16q48-4 56-11c8-8-20-12-47-6-14 3-29 3-34 2q-9-2-13 3-3 6 6 8c12 3 14 16 3 16q-7 1-6 6c4 10 69 27 113 28q22 2-5 17c-16 8-50 7-93-4-28-6-35-15-37-46q0-33-41-44c-17-4-43-24-43-32q-2-5-15-18c-8-8-21-23-28-34q-14-20-21-21a170 170 0 0 1-77-130c-2-17-8-48-15-70a316 316 0 0 1-13-148q-2-5 3-18c9-24 18-63 18-80 0-9 5-23 10-32s10-22 10-29q2-12 5-13 4-2 11-17c8-17 32-47 81-104 9-10 21-31 26-48 8-23 19-38 43-65 29-31 68-57 84-57q6-1 24-9c10-6 23-10 29-10 20 0 98-33 116-50q12-11 41-14c51-5 109-4 131 4 48 16 141 20 174 8 12-5 82-12 119-12q20-1 42 15c12 9 27 16 32 16q9 0 13 5t18 2c25-5 109 25 123 44 3 5 17 12 30 16s25 10 28 15q5 8 10 8c6 1 31 22 31 28 0 9 118 25 174 25 33-1 44 1 134 25l69 18q18 5 22-3 15-16 26 7c4 11 11 16 37 24 35 11 114 41 125 48l23 7q13 4 18 8 3 4 13 4 10 1 17 10 6 8 15 9t12 5q3 5 11 5c4 0 24 7 42 17l39 16c2 0 19 11 36 24 18 13 35 24 37 24q5 1 3 6-3 5-24 11c-12 2-23 6-25 8-4 4 16 15 21 11q4-1 13 4c8 6 8 7-2 12-6 3-20 5-30 4q-16-1-18 1c0 5 27 19 37 19 5 0 17 6 28 14 15 11 26 15 45 16q25 2 28 8l15 32c12 25 29 39 77 62q37 20 11 21c-19 0-19 8 0 32 23 31 21 44-8 53a214 214 0 0 0-40 14l-20-44q-4-14-5 4c-2 12-3 13-19 10q-17-5-16 4-1 21-33 1c-23-14-23-14-25-1q-1 16-10-6a91 91 0 0 0-58-52c-26-10-34-11-86-8-85 5-93 6-127 12-17 2-53 5-81 5l-57 1-61-4-53-3v12q0 11 6 20c6 9 4 9 72-1 28-5 40-4 89 9 11 3 41 7 64 10 24 2 47 6 52 8 26 11 86 28 90 26q3-3 3-14c0-6 5-14 10-16 22-12 66 17 60 38q-3 9 0 15c4 7 12-5 12-19q1-19 17-3 9 6 2 17c-5 8-4 11 3 19q8 8 12 9c7 0 0-39-7-44-8-5 0-18 10-18q10-1 13 17l4 32c3 14 1 19-10 27l-12 10 27 12c15 6 26 14 26 16q1 5 7 5 6 1 13 7c2 4 17 14 31 22 21 11 26 16 26 26q1 11 7 15 7 4 7 9c0 4 5 16 12 28s12 26 12 32c0 7 3 27 8 45 12 49 11 56-12 174-10 54-12 59-53 107-40 48-43 53-37 67 4 9 9 10 47 11 40 1 42 1 42-8q0-10-9-10c-12 0-21-16-17-29a167 167 0 0 1 139-65c36 0 46 2 69 14 14 7 28 16 32 19q6 5 13 2c7-3 12-1 50 15s58 27 70 40c7 7 16 14 19 14a142 142 0 0 1 61 69c9 14 12 26 12 47 0 25-1 28-20 48-28 29-38 42-35 49q1 5-5 11-15 15 5 22 12 2 17 9c3 3 6 34 8 68l3 61-35 34c-38 37-78 63-95 63-39 0-87 14-105 32-32 29-41 31-119 26-38-3-70-4-71-3-2 1 1 12 5 23a191 191 0 0 1-11 147c-8 10-17 25-19 33-5 14-69 72-109 100-22 15-104 43-127 43-38 0-97-14-117-26a44 44 0 0 0-40-9c-12 1-25 7-30 12-17 19-65 41-95 45-39 4-104-5-121-17-19-13-21-12-31 10s-50 63-66 67c-6 2-21 3-33 4-22 0-23 1-28 19-6 26-16 36-52 53q-54 27-148 29c-66 1-150-14-177-31l-38-22c-12-6-25-15-30-20q-8-9-30-9c-22 0-71 15-90 27-16 10-68 13-105 5-91-19-113-28-145-57-12-11-19-15-31-14q-15 1-20-4-3-4-7-2-5 3-17-7c-12-9-12-9-3-15q11-5 30 0c11 2 23 3 27 2q7-3 12 5c4 8 37 27 47 27q13-1-33-31c-16-9-32-17-36-17-16 0-7-8 11-11l26-6q10-5 5 10-5 13 7 12c11 0 14 8 4 11-3 1 10 4 29 6 27 2 34 5 32 10q-4 8 12 5c7 0 15 1 15 4 2 6-29 12-49 9l-16-3 17 9q16 7 16 11-1 5 10 7l24 5c14 3 32-2 28-7q-3-3-23-2c-34 3-5-6 39-13 43-6 57-3 24 5-30 8-35 10-31 13 6 6 96-9 117-20q36-17 4-21-19-3-5-6 11-4 20-21c10-20 14-16 4 5q-11 27 16 5c15-15 25-13 12 2-9 10-9 10 2 10q12-1 18-6 5-5 6-1c0 9-12 16-27 16q-14 0-18 8c-3 8-60 35-74 35-12 0-18 9-10 16q4 5 15 0c17-9 56-23 88-33 17-5 35-15 44-24l20-16c8 0 9 9 2 14-8 7-9 19-1 19q7-1 16-7 20-13 21 0-1 8-12 12c-13 5-11 16 2 13l19-6q13-6 9 8c-3 11-2 13 22 18 37 8 86 8 104-2q21-11 8 1c-4 4-18 11-31 14l-23 6h20c11 1 30-4 45-11 14-7 29-12 33-12 11 0-14 18-34 24-33 10-32 9-22 14 16 10 76-11 107-36q17-15 16-5c0 10-35 35-60 42l-19 6 16 2c22 2 63-11 89-29 12-8 23-13 25-11 4 4-22 26-31 26q-6 0-8 5 0 3 16 3c15 0 27-6 51-22 29-20 50-44 44-50-3-3-28 8-52 21-6 4-21 7-33 8l-22 1 22-6c40-11 80-36 58-36q-11 0-8-7 3-6-15-11l-19-5 20-8c23-11 40-14 40-8q-1 5-9 6c-17 3-11 11 7 13q15 2 16 8 1 7 8 7 5-1 4-7c-3-9 21-22 40-21q17 0-6 5c-24 6-26 8-17 14 19 11 56-5 42-19q-6-4 8-10l20-5q6 0 6-5c0-6-41 0-58 8-7 4-22 7-33 6h-21l24-7c75-22 90-28 96-34q12-14 2-23-4-2-5 2c0 8-57 33-89 39-33 7-50 4-28-4 28-11 29-12 5-15l-24-3 18-3c27-6 24-17-4-15q-23 1-14-2 12-4 1-7c-5-2-17-3-28-1l-21 3 15-8c14-7 13-7-17-4-34 3-39 5-29 11q8 5 13-1 6-5 10-2 3 4-5 8-9 5-6 15c5 12-8 16-31 9-20-5-33-18-14-13q11 4 8-5-3-7-3-14 0-6-7-6-6 0-7-5 0-5 8-5 8-1 23-11c27-21 65-18 101 10 16 12 24 14 77 16 10 0 23-2 30-4 12-5 13-7 9-19q-9-25 8-7c12 16 78 20 104 8q30-13 14 4c-4 4-19 9-34 11l-28 3 14 6q43 18 95-10 57-27 10 9c-12 8-19 16-16 16 6 3 36-11 55-25 16-12 45-27 45-24a199 199 0 0 1-99 65q-14 5-6 9c7 5 43 1 48-4 5-6 55-39 60-39q5-1 8-9c1-4 8-13 15-17 13-8 14-8 35-1q21 7 25 3 6-6 39 8c11 4 6 12-5 8q-10-3 2 5 28 20 90 15c32-2 45-6 76-23 20-11 44-26 52-33l40-32c24-18 37-38 67-97 11-22 12-28 9-59-4-41-11-62-26-75q-9-8-10-14c0-6-56-30-61-26-6 6 8 28 17 28 11 0 20 10 36 41 14 27 15 46 8 99-7 44-17 61-71 109-49 45-85 63-134 67-29 3-24-4 6-9 43-7 94-35 128-72 18-19 43-93 43-125 0-35-14-67-21-47-1 3-4-7-6-22-3-28-9-42-21-55q-14-13-3 12c4 7 7 18 7 23q-1 9-8-10c-5-11-12-23-16-28-6-7-5-9 2-15q13-10 1-42-5-10 5-7 8 3 11 14c3 12 15 17 28 11q8-3 14-2 6 0 6-17 0-24-5-7c-5 12-19 25-25 23-3-1-17-33-18-41q1-1 10 7c13 11 13 0 0-21-11-19-11-20-3-20 4 0 12 11 18 25l11 24 4-26c4-33 1-45-17-66l-38-43a201 201 0 0 0-110-57 260 260 0 0 0-161-13c-9 5-12 10-12 24q0 31-14 18-15-12 2-37l9-15-29 1c-17 0-39 5-51 11-12 5-28 11-34 12-7 2-18 12-25 22q-26 36-72 16c-10-6-21-9-23-8q-3 2-4-1c0-3 12-13 26-21q11-8 6 7-5 14 6 13c5 0 15-3 22-5q16-8 7 2-7 7 0 7c7 0 23-19 24-27q-1-6-13-6c-18 0-73-12-90-19l-16-7-10-4a175 175 0 0 0-171 30l-30 19-21-7c-28-10-34-9-62 4a99 99 0 0 0-51 48c-1 8-5 10-24 8-22-1-51 9-51 19q-1 5-12 12c-9 6-15 6-30 2-14-3-19-3-24 1-3 4-13 6-22 5-16-2-51-27-44-33q3-2 12 5 21 19 8-14-8-17-6-42 3-25-4-39l-7-14 1 22c2 31-6 21-9-12q-3-27 2-27 6-1 14-21c10-20 51-60 57-54 2 1-8 14-22 27-26 27-31 38-27 68l7 58c3 28 6 39 15 48q11 11 15 12c7 0 5-15-3-24-4-4-8-15-10-24l-2-16 8 14c9 17 42 50 49 50 9 0 5-9-10-19-20-15-37-57-23-57q4 2 8 18 1 19 16 26 33 20 9-11c-18-23-32-75-24-91l7-9 1 25q-1 25 12 46c14 26 26 33 21 12l-5-28q-4-20 4 3c6 17 35 55 40 51 1-1-4-13-11-26-12-23-23-89-12-73 3 4 5 15 5 24 0 18 17 47 29 51q7 4-1-9-21-30 13 0 31 27 31 10c0-3-6-14-14-25a60 60 0 0 1-15-39q0-21 5-12 5 8 5 17c0 12 22 40 31 40q15-1-5-18-10-10-12-16 2-3 17 10c19 16 25 17 37 9 7-6 7-8 1-26-7-22-9-58-2-69q5-8 5 23 0 28 8 46c8 17 20 25 13 9a123 123 0 0 1-4-35c3 21 11 38 19 38s8-4-1-25c-8-20-10-53-2-48q5 3 3 12c-4 15 6 43 21 58 25 24 48 11 27-16q-9-13-11-39l-2-25 7 21c3 12 11 31 18 42 11 18 12 20 21 14 9-7 8-7-2-18-15-14-30-46-30-65 0-8-1-17-4-18-6-3-7-31-2-42 5-15 12-8 8 9-3 19-5 18 26 9q17-6 5 25c-4 13-3 19 7 37q20 33-3 15-8-6-12-40l-3-32-9 12c-8 13-8 14 1 40 10 28 36 60 41 50q4-4 15-9c9-3 11-9 14-34 4-31 14-51 26-52q6 0 1 6c-6 7-21 70-18 74q3 2 12-1c9-3 10-6 7-25-3-20-2-22 13-35q18-17 18-7 3 14 15 0c10-13 11-3 0 10-12 15-14 50-3 50q7-1 11-13c3-16 23-45 31-45q3 2-5 12c-14 14-20 50-9 50q7 0 10-18c2-11 5-21 8-22q5-3 2 9c-5 17 2 47 9 44q5-2 7-13 3-33 11-33 4 1 2 16c-5 24 8 50 25 51 9 0 7-9-4-12-12-4-12-22 1-34l10-9-4 19q-4 22 3 13 14-13 14 4c0 10 7 13 12 4q3-7 5-1 3 6 15 3 12-4 11 5 0 14 14 2 7-8 4 2c-3 6 9 17 13 12 7-8 12-23 9-29q-3-8 4-5 8 3 11 10c4 11 13 7 9-4q-3-10-6-14c-6-5-14-22-12-27 3-8 16-7 16 1q0 5 10 9 10 3 9-7c0-10 2-10 23-4q17 5 25-2c12-7 13-20 1-15l-15 6q-5 1 8-14c13-14 15-17 9-20-4-1-15 2-25 8-21 12-28 7-10-8 13-10 13-11 6-14q-8-2-20 6-12 10-20 10-9 0 5-10c20-15 18-25-6-21q-19 4-19-2 0-5 7-5c9 0 32-19 29-25-5-7-18-4-30 7-18 17-18 5 1-13q25-26 26-12 1 5 6 5c5 0 18 13 18 20q0 2-10 6-9 3-5 8 5 5 15-1 14-8 8 4-3 12 7 8 10-5 9 7-1 13 7 5t10 2q4 8 9 3 7-6 10 0 3 4 12-3 9-9 11-1 2 6 15-7 14-17 12-5c0 10-24 30-35 30s-29 17-25 23c5 8 9 7 20-4 6-4 16-12 24-16 33-18 43-32 54-77 6-23 17-56 25-73 9-17 13-34 12-43l-1-13-6 14c-8 20-17 36-18 35s1-16 5-32c8-39 17-131 15-151-4-30-9-50-14-50q-4 0-1 23c8 45 5 92-10 170-6 28-6 39-2 44q7 5-6 26l-19 35c-8 15-37 34-41 28q-2-2 3-5c7-2 17-20 11-20l-18 13c-15 16-35 28-35 21 0-2 11-13 26-24q47-39 53-81 3-19 9-18c9 4 17-57 14-97q-4-36 3-34c7 0 3-45-9-97-8-34-43-98-54-98-2 0-10-11-18-24-8-12-18-24-22-26-8-3-10 5-2 9q5 4 5 13c0 9 22 55 28 61 3 2 12 24 32 78 12 33 9 68-10 113-10 23-18 44-18 47-1 8-33 40-36 37q-1-3 6-10 6-7 7-13t7-13c3-4 14-25 24-47 22-53 22-75 0-132l-22-59q-4-14-7-14c-1 2 2 20 8 40 12 44 14 75 5 111-7 26-50 103-71 126a86 86 0 0 1-44 27c-7 0 10-15 25-24q14-6 24-23a405 405 0 0 0 60-136c9-10-10-88-29-124q-5-9 2-13 7-3 1-10c-3-3-7-15-9-25-4-19-11-38-14-35-4 4 6 124 11 130 12 14 18 49 14 77-4 26-32 93-48 114-4 5-20 14-35 19-21 8-30 14-38 26-13 23-34 43-42 43-12 0-9-12 4-18 6-4 15-15 21-25 8-14 29-33 39-36 37-7 38-8 51-30 16-26 20-37 23-59l5-29q3-13-2-17-6-2 0-18c4-12 3-20-3-37-5-11-7-23-6-25 3-5-5-79-11-106q-12-44-40-86c-14-20-72-72-81-72-2 0 8 13 22 29 47 53 62 83 75 147 7 34 6 121 0 109q-5-9-3-23c3-13-10-92-21-130-2-10-9-22-14-27q-8-8-9-14c0-15-106-125-114-118q-2 4 3 9 5 6 6 14 0 8 4 9c9 0 76 72 84 90l13 27c3 5 6 27 7 47 2 36 1 38-5 27q-9-17-8-2 0 10-8 17a89 89 0 0 0-24 63c-4 75-23 136-54 168-17 19-49 38-69 43-8 2-25 10-38 19-34 21-67 35-88 35-9 0-33-3-53-7-35-7-45-7-124 7-14 3-30 4-35 2q-26-9-74 44c-27 28-33 39-37 57-5 26-14 33-19 14q-4-14 5-17c4-3 14-19 22-35 10-25 17-33 34-43 12-7 24-16 27-19 10-11-16-13-42-3-13 5-24 8-24 7s13-9 30-17l29-14-31 1c-32 2-33 3-58 28-33 33-40 45-44 72-3 19-2 24 8 35l12 14-1-33c0-29 2-35 13-52q20-27 29-26 3 0-5 11a91 91 0 0 0-27 73q3 20 9 24c8 3 4 16-5 16q-7 0-10 5-3 6 10 2c13-3 36 1 36 7 0 4-42 19-54 19-9 0-42 20-60 35-16 15-34 53-34 72 0 57 36 132 66 139 7 2 17 9 22 15 8 10 14 12 35 12 32 0 45-4 57-19 10-12 30-18 30-10q0 3-7 4-6 1-7 7-2 17 24-7c18-16 23-17 23-6q-2 11 9 0 10-8 15-6 4 3 7-2 4-4 13-3 8 3 9-2t12-9 12-9c0-2 5-10 11-16l16-21q8-13 4 3c-4 17 3 21 12 8 13-16 16-6 4 13q-12 18-2 17 6-1 9-9c3-10 32-32 32-24q1 4 9 3 9-3 13 2c3 6 15-4 21-18q4-12 4 5l1 15 9-12q8-10 9-18 0-6 10-4 9 3 10-6 3-9 16-9c12 0 13 0 9 22-5 34-11 45-11 20q0-19-5-17c-2 1-5 14-5 28q0 35-14 36-2-1-1-16v-25q0-12-10 7-9 15-6 30c5 21-2 41-17 52-14 10-19 6-7-7 8-7 10-22 4-22l-10 6q-6 7-5-6c0-6 4-16 9-20 11-10 13-32 3-32q-8 1-18 15c-11 15-11 15-14 4-2-11-2-11-11-1-8 9-8 10 2 20 9 9 9 12 5 24q-6 13-11 17-5 3-2-2t0-11-18 13q-15 17-20 15-3-3 5-13c14-15 27-43 19-43q-5-1-9-6-1-7-9 3-7 8-18 14c-10 6-33 45-40 69q-4 14-6 5c-2-7-3-7-17 1-8 5-28 10-45 12-29 3-41 11-19 12l29 2q18 0 29-8 12-9 15-3c5 7 22-11 36-38 11-23 19-21 10 3q-7 13-1 26c5 14 2 35-6 45q-4 6-2 9c1 1 12-8 24-20 12-13 23-22 25-20q2 4-4 12-8 9-8 12 1 11 31-16c17-16 21-18 21-11q-1 9-17 20c-23 17-13 24 11 9 10-6 21-15 25-20q6-7 10-7c17 0-14 36-35 40q-15 5-7 6c20 5 72-32 93-66q8-13 12-14 4 2-6 17c-5 9-9 20-9 25q2 9-9 10-10 2-11 9c0 6 5 7 25 5q24-3 20 1c-2 3-17 5-32 6q-51 5-14 17 39 12 25-1-12-15 12-9 16 3 5 7-9 5-1 12c6 8 1 8-43-1q-29-4-1 14c16 9 76 16 97 11 20-5 11-10-17-10q-23-1-26-6-3-7 23-6c28 0 62-11 52-17q-16-10 14-21 48-14 19 9-13 12-13 20 2 5 25-16c23-21 50-68 50-89 0-10 5-16 35-43 11-9 22-35 22-49q1-9 4-7c6 4 4 26-3 43-4 8-16 22-28 30a55 55 0 0 0-25 39c-5 25-3 31 10 27 14-5 11 7-4 20-13 10-13 10-2 11 13 0 29-17 41-43 9-20 20-26 14-8-5 19-26 46-39 51q-11 5-9 7c1 2 12 0 23-4q36-14 55-72c11-31 14-36 19-24 1 4-1 20-6 35-11 31-48 72-66 72q-11 0-15 5-3 5-12 5-8 0-9-5 0-5-7-5t-9-5c-1-5-61 48-61 55q2 1 17-5c22-9 33-9 16 1q-13 7-14 16c0 12 1 12 30-2q24-12 23-6-1 7-11 14t-7 11c5 5 22-3 35-16 11-12 12-12 12-2q-1 9-13 20-17 10-5 10 11-1 26-13 28-19 4 11c-9 11-15 14-32 14h-20l28 24c24 22 29 25 50 25q23 0 38-10c29-20 30-20 23-9-7 12-40 29-56 29q-9 1-10 6 0 5 18 2l25-3c10 0 40-28 49-45 4-8 14-19 22-26q23-17 10 5-6 10 2 9 6-1 9-7c4-10 13-9 13 0q-1 10 7 2 16-13 3 14c-6 14-10 17-20 16s-15 1-23 14c-6 9-15 20-22 25-15 10-22 10-8 0 18-13 38-64 25-64q-3 1-10 14a80 80 0 0 1-62 48c-36 7-38 16-2 13 14-1 26 0 26 2q-2 3-15 4c-20 0-13 7 15 13 22 6 29 5 29-5 0-4 10-13 22-22 12-8 22-20 24-25q2-8 6-9 4 1 2 10c-4 15 7 11 18-7q22-31 16-4c-4 18-21 35-33 33q-9 0-11 5c-4 11 17 6 34-8 20-18 29-41 22-59-5-14-1-29 10-33q7-3-9-17c-14-14-15-14-32-9l-17 7-32-30c-31-30-32-31-34-61-2-35 4-34 9 2q5 24 15 36c14 15 37 32 40 29 4-4-7-28-15-34a82 82 0 0 1-23-60q9-42 11 0c0 40 20 69 23 35 3-24 11-19 11 5q2 42 14 10c9-26 67-69 67-50q-1 4-10 9c-11 4-21 12-43 38q-18 18 4 44c14 16 50 35 59 30q3-3 4-11c0-10 21-43 30-49 4-2 17-4 30-4 20 0 27 2 35 11q20 22-11 10-17-6-36-3c-19 4-22 6-30 22q-16 34 4 34l27 1c17 1 18 2 15 13q-3 11 3 12 5 0 5 5c0 2-13 6-27 8-25 3-28 5-33 18q-13 38-50 63c-21 14-29 16-40 13-37-9-90 7-115 34q-19 19-29 7-1-5 10-9c14-6 16-15 2-15-18 0-47-18-47-29 0-15-20-39-46-56a189 189 0 0 1-53-42c-14-15-26-26-27-25l-5 23c-2 19-2 20 12 20q12 1 14 4-2 5-17 5c-15 0-17-1-17-13 0-13-1-14-15-12-9 1-20 6-25 11-13 11-37 9-62-5-11-5-25-10-31-10-7 0-22-3-34-6l-21-7h17c10-1 20 1 21 4 1 2 9 3 16 2q14-3 36 9l23 13 40-15q73-29-6-19c-38 6-39 6-67-8l-28-14-57 10c-65 12-86 22-115 58-10 13-25 31-34 40-8 10-17 24-18 31l-4 15 11-9q9-9 14-6 1 4-10 13-12 9-10 14c4 9-13 10-22 2-13-11-60-23-79-19-8 2-19 7-25 13-10 9-11 9-20 2-4-4-18-12-31-18q-65-28-116 40c-23 30-28 44-20 54 7 9 17 1 21-17 4-16 23-38 34-38q9-2-7 16-13 16-15 22c0 8 9 5 17-7 9-15 15-13 7 2-6 11 1 17 9 7q12-14 16 2 1 11 21 12c35 6 41 8 37 12q-5 5-21 0c-9-2-29-6-45-7-22-2-31 0-43 7q-15 10-19 19-1 9-22 12c-12 2-26 7-33 10-12 8-14 8-30-2-9-5-21-10-27-10q-10-1-25-16c-16-19-64-37-80-31q-9 5-25-13-15-15-21-16-6 0-11-7c-7-7-71-8-108 0-31 5-104 25-107 29q-2 3 10 0c7-2 23-5 36-6l23-2-22 7c-12 4-37 11-56 15s-34 9-33 10 41-3 88-10c87-12 115-14 125-8 3 2-16 5-42 7-76 5-195 27-216 41-9 6-4 6 43-2 23-4 68-9 101-12l75-10c17-4 30-2 30 6q-1 3-4 2c-3-2-18-1-35 2l-59 6c-52 6-157 26-173 34-38 19-2 16 92-9 50-13 95-22 114-22 23 0 12 4-43 15-29 5-69 15-90 21l-65 17c-42 9-42 9-32 16 11 8 11 10-1 14-22 6-7 11 28 10q39 0 50-9c8-5 34-11 66-15 80-10 112-15 144-25q33-10 15-10c-8 0-22 2-31 4-9 3-33 6-53 7-48 3-131 15-157 24q-36 13-38 4c0-6 34-20 52-21 9 0 41-4 69-9 29-5 76-10 104-12l50-3-2-16c-2-16-2-17 11-17 13 1 13 1 5 8-14 10-6 14 14 7 22-8 34 1 14 10-13 6-13 6-2 10q10 4 8 6c-2 2-86 26-105 30q-13 2-13 6c0 4 36-2 62-9 25-8 28 2 4 10-19 7-19 7-7 8q27 1-15 13-43 12-46 0c-3-7-19-5-30 3q-6 5-20-3c-12-5-16-5-25 0-6 3-24 6-39 6q-41 0-93 18-21 7-20 16c0 12 3 12 34-3 14-7 34-13 44-13 17-1 20 1 21 11q2 12-12 23-20 18 7 4c6-3 15-14 19-23 8-16 11-17 38-11 24 5 26 38 3 52-14 9-73 27-91 27q-10 1-11 6 0 7-14 4-22-2-9 12 11 7-16 13-17 5-11-6c3-9 2-10-22-7-14 2-31 5-38 8q-18 6 7 7 16 2 17 8 0 12-62 12h-33zm1864-1374q-1-28-3-10c-1 9-4 19-6 22-3 2-5 11-5 19 1 13 1 14 8 5q6-10 6-36m22 0c11-34 9-49-9-88-15-32-27-49-27-37q1 5 5 8c17 11 27 83 17 128-6 27 4 19 14-11m-575-25q-2-51-6 5c-1 13 0 25 2 25s4-14 4-30m539 18c0-11-7-13-8-2q0 8 4 9 4 0 4-7m-1401-8c16-8 18-20 2-16-19 6-42 16-42 18 0 6 27 3 40-2m1640-20c-6-6-7 5-1 19q3 12 5-3 1-10-4-16m-1781-7c8-6 16-13 16-16 0-7-18-5-21 2-1 4-12 11-24 17-12 5-22 11-22 12 0 5 39-6 51-15m18 12q20-9 5-15-7-1-18 10-17 18 13 5m81-4c11-5 26-16 32-23 11-15 21-20 16-8l-6 15q-1 5 15-8 41-38-17-38c-24 0-27-6-12-36 15-31 19-59 10-62-13-5-27 13-25 32l2 16 4-15q4-15 8-19c6-3 2 20-9 55-7 21-10 25-19 25q-13 1-31 19a94 94 0 0 1-28 21q-8 3-9 7c0 9 35-7 49-22q30-28 6 6c-19 25-11 26 14 2q20-18 21-15c0 4-10 17-23 31-32 31-32 32 2 17m327-16c3-6 4-16 2-20q-4-12-7 2-4 10-12 11-15-1 3-19c9-9 9-9-24-44-18-19-34-37-34-39 0-4 22 14 48 40 34 33 57 42 57 19 0-11-9-34-14-34q-12 1-1 17 23 37-39-27c-23-23-41-44-41-45q1-2 7-2t10-5c3-5-8-44-20-69l-7-14v16q0 19-4 10-5-8-5-18t-7-11-9-12c-5-16-12-15-9 2 2 12 1 12-13-6q-23-28-9-27 4 0 1-5-4-7-6 0-2 5-6 3-5-2-10 3-2 9-25-14c-12-12-24-28-27-35q-5-15-21-14l-23-2q-6-3-10 5-3 8 4 5 8-1 34 26c15 16 42 38 60 50q56 39 57 66c0 7 4 24 9 37 11 26 11 25-4 83-4 15-3 20 2 23q7 4 7 10c0 13 51 46 70 46q9-1 16-12m1129-8c-3-25-13-52-16-43-1 3 0 13 3 21s5 21 5 28q1 12 5 14 6 0 3-20m-44 12c11-4 9-34-2-54l-11-14c-2 2 2 71 4 71zm218-14q2-5-5-26c-11-32-28-50-95-102-18-13 11 21 34 41 24 20 38 42 51 77q7 18 15 10M375 990q-1-6-9-13c-8-8-11-8-20-3q-11 5-42 3c-26-3-31-3-26 2q7 7 37 7c17 0 32 1 34 3q6 6-30 4c-19-1-21 7-3 13 15 5 59-7 59-16m1819-8c-7-31-74-104-112-122-25-12-28-12-28-6 0 2 12 12 27 21q67 46 105 117 15 27 8-10m-269-32c-5-13-28-39-28-33 0 2 5 13 12 24 6 11 12 28 12 38 0 9 1 19 3 20 6 7 7-35 1-49m-317 34q-3-9-7-10-3 1 1 12c6 13 11 12 6-2m-1096-8 13-12-14 3q-21 4-22 18 1 9 23-9m1400-13c-4-11-14-29-23-39-15-18-19-16-4 2 3 4 9 18 14 30 9 28 12 33 15 30 2-1 0-12-2-23m-1457 6c13-11 16-18 20-41 2-16 2-32 0-35-4-9-1-33 5-36q5-1 15 14 12 18 18 11c6-7 6-8-3 39q-5 21 4 10c5-3 10-17 11-29 4-29 12-26 12 4l1 22 5-20c4-16 3-23-3-36q-8-17-8-26 1-11-10-7-14 1-2 9 12 7 2 6-8 0-10 7-3 4-3-5-1-11-4-17-1-7 14-18c25-15 30-13 31 13 2 23 8 37 13 25l5-31 4-24 5 23c3 13 8 23 10 22 7-2 3-50-5-65-4-7-7-16-7-18 0-5-23-28-54-55-14-12-14-12-8-1q6 13-1 10-6-1-16 4c-12 7-45 13-36 7s4-13-20-30c-21-15-35-32-30-36 1-1 11 4 21 12q33 27 18 5c-13-19-8-26 7-9q22 26 9-1-6-10 0-15 5-6 10 10c7 20 15 20 9 0l-4-16 24-11 25-11 31 10c18 6 39 15 47 20 15 8 16 8 16 1q0-10 5-1 4 9 4-2 1-9 7-6 7 3 8-2t9-5 10-4 7-5 7 9 5 10 3-22c-3-23 3-29 12-9 6 18 11 11 5-7q-11-28 14 1 23 28 4-20-14-40 7-12 7 11 11 10 2-4-6-15-7-12-6-18c1-3 9 6 18 19 8 14 17 25 19 25 8 0-9-37-28-57q-34-38 3-14 13 8 15 6c0-5-34-49-38-49q-2 2-3 23c0 12-5 32-10 44l-13 30q-2 7-11 11c-4 2-20 11-34 21-15 9-30 19-36 20-11 4-57-25-68-44l-26-33a66 66 0 0 0-48-25c-17-3-36-5-43-5q-13-1-13-6 1-7 7-5 16 7-5-18c-14-17-16-28-3-16q10 8 18 7c8-2 6-6-11-21a63 63 0 0 1-21-29c1-9 1-9 8 0q8 10 21 9c12-2 14 0 14 7q0 8-5 14-6 5 9 13 35 16 14-3-13-11-12-18 2-6 25 13 48 37 52 32c4-5-2-16-9-16q-7-1-13-10t-11-10-15-12c-5-8-26-26-46-42-32-26-37-32-60-76-17-35-25-56-27-75q-3-27 3-19 4 8 5 20a178 178 0 0 0 36 79q1-3-2-12l-15-43q-18-60 2-96c6-11 7-9 5 26a198 198 0 0 0 25 116c3-13 7-11 20 8 10 16 29 31 29 23l-10-14c-5-7-9-16-9-19 0-12 9-7 19 12 5 10 19 25 31 33 21 15 22 15 19 5q-4-16-27-28c-8-5-14-23-9-26q7-4 21 17c4 7 20 21 35 31 15 9 52 41 82 71q54 52 57 48c1-7-34-54-72-95-12-13-23-27-24-33-2-6-12-16-22-24-18-12-31-31-26-36q3-2 15 10 14 12 24 13t22 16c15 20 68 61 61 48-3-6-13-17-23-25s-17-17-15-18c1-1 16 9 31 22l32 24c9 0-1-17-20-35-24-23-22-31 3-10 16 13 20 14 20 5q-1-8-18-18c-32-19-73-73-62-83 6-6 22 6 33 26 8 12 19 25 24 28l10 7-10-14q-19-27-11-39 4-9 9 3l22 29q17 20 14 28t12-5q14-14 12-17-2-1-9 7-8 11-12 2c-2-4-11-14-19-23s-14-22-14-28q1-21 13 0 6 11 5 2 2-19 19 8 10 15 15 17c6 0 6-13 0-17-6-3-6-24 1-28q4-2 7 6l5 10 19-16c13-13 24-18 49-24l40-7q8 1 5-14-2-13 2-17 5-2 6 4 0 8 12 8c14 0 14 2 0 21-10 13-15 16-41 18-17 2-39 8-49 14-19 11-24 18-39 52l-21 38a55 55 0 0 0-12 48q5 37 23 54c10 9 22 31 22 40q1 10 9 13 9 3 16 14 8 11 13 12 10-2-17-38c-9-11-15-22-13-25q3-5 8 2l19 23 13 17-2-16c-5-29 3-19 50 57l16 28 8-15 8-16v13q2 23 15 6 6-7 4-38c-2-17-2-31-1-31l8 15 7 16v-16c1-16 10-25 16-15q4 7 4 1 0-5 5-6 5 1 5 7 1 13 12 2 6-6 25 0c19 4 20 4 20-7 0-16 9-14 12 2q3 14 10 17 6 3 15 20c5 10 14 23 20 28s21 23 33 38c12 16 23 30 25 30 6 3 5 11 0 11-3 0-22-20-42-44-55-63-68-78-68-72q1 6 14 20 13 15 14 20c0 7-8 5-13-3q-5-7-10-7-4 3 12 24c18 23 30 31 21 14q-5-9-3-13c8-7 50 50 75 100q4 9 2 18-3 8 2 12 5 2 5-9-1-13 12-17 26-11 26 4 0 9 5 13 5 2 5-9 0-12 4-3 4 8 13-1c14-12 33-15 90-16l91-5c21-2 43-4 49-3q10 2 10-9c0-11 8-12 42-4 20 4 27 3 42-3 21-10 89-11 99-3 8 6 63 16 72 12q6-3 10-9 2-6 7-7 6 0 0 9-10 17 3 15 6-1 15-16l8-15 3 14c3 17 16 20 18 4s10-14 10 3q1 14 5 15 5-1 5-15c0-17 8-19 11-3q1 10 6 10 4 0 6-10c2-16 9-14 13 4 3 14 14 17 15 3l1-12c1-11 10-7 16 7l5 13 4-15c5-19 14-21 14-4q1 11 4 14 5 2 5-9 1-10 5-12 8 1 5 18c-1 10 5 6 10-7 5-14 5-14 13-3 8 10 29 18 29 10q1-3 6-4 7 0 15-10 9-8 16-7c14 4 46 4 55 0 5-1 20-1 34 2 52 11 59 11 67 3q8-8 15-2c7 6 88 8 97 3q6-4-2-18-14-28-9 2 6 20-4 6-7-9-26-10c-24-2-30-5-30-17q-1-8-9-15-10-5-10-12 0-5-8-6-9-1 3 12 9 14 9 21 0 9-5-1a76 76 0 0 0-30-31q-2 4 9 19 11 14 10 17-2 3-4 1-31-43-39-43t8 19q14 18 12 23-4 3-8-4c-9-16-19-26-21-22q-3 3 2 12 6 10 3 14-4 3-6-3l-14-19q-11-13-12-5 1 7 6 13t3 8c-3 3-37-27-37-33q0-3 10 0 15 6 4-5c-7-8-6-9 16-6 19 2 22 1 22-6q-1-9-8-11c-62-19-104-28-145-32q-102-11-97-20 0-7-22-19l-24-13 3 13c4 15 24 44 31 44q5 1 5 7 1 8-24-6c-19-10-24-15-24-24q-1-12-8-21c-7-8-7-10-2-14 16-10 29-10 48 0 10 6 21 10 23 10 6 0-19-19-25-19q-8-1-20-14c-15-14-28-17-123-31q-37-4-40-12c-3-7 28-5 78 7 52 12 64 13 64 6 0-8-23-42-29-42q-4 0-4-5t14-2q13 3 14 0l-17-19q-28-26-3-20c10 4 44 44 44 52q-1 5-9 2c-13-3-12 2 4 25 8 11 17 25 19 32q6 11 14 11 9 1 13 6t10 2c11-4 79 6 95 13 14 8 45 7 45-1q-1-5-18-12-35-19 34-6c20 5 42 8 48 8 7 0 21 3 31 8 23 9 37 6 18-4-18-8-22-18-8-18 11 0 11 0 2-10q-9-10-12-4t-12-11c-9-16-9-16-11-4l-3 12-6-11c-3-5-6-15-6-22q-1-11-4-12c-6 0-10 12-10 26q0 12-5 9-4-3-3-12v-17c-3-6-4-5-11 1-8 7-9 7-12-2q-9-21-13 5-2 14-7 17-6 3-3-22c2-20 1-24-5-24q-7 0-12 8-5 10-8-7-6-26-15-9-2 9-11-3c-8-10-9-10-18-2q-15 13-15-7-1-9-10-9-9-1-10-4c0-9-15-10-24-3q-10 13-9-3c0-9-2-10-14-8q-17 5-15-6c0-11-13-13-22-4q-7 8-6-5-1-17-15-3c-7 9-14 5-10-7 2-11-8-13-11-2q-4 6-10 7-7 0-4-12 3-13-4-12t-10 10c-3 13-14 9-16-6q-5-24-18-14-9 9-11 1-4-7-7 1c-5 14-14 9-11-6q5-26-14-5-20 21-14-7 8-25-13-12-10 5-15 1c-3-3-19-6-34-7-15-2-30-5-32-8q-6-3-25 0c-21 4-38 2-91-8q-99-19-71 3c7 6 21 34 21 43 0 7-17-6-22-16q-5-9-15-14c-13-4-13-4 1 15 7 9 12 20 12 24s9 15 21 24 21 20 22 23c0 10 19 34 26 34q5 1 9 7 3 6 20 9 42 9 35 21-6 5 15 9c25 4 31 13 7 11-23-3-22 4 2 8q17 3 17 6c-7 7-86-6-91-14q-4-6 20-3c23 3 23 3-9-7s-45-21-19-17l32 6 19 2-16-5-36-9q-18-4-21-10c-3-9-29-32-46-41-8-4-25-16-39-26-28-21-32-22-28-9l2 10-33-29c-17-16-31-28-32-27-7 8 47 66 89 98l23 19q7 5 14 6 6 0 6 3 2 5 15 12 13 9 14 16-2 14-14-1-7-7-17-12-15-10 0 5 9 10 4 15-5 6-11-4c-3-5-26-23-51-41-58-37-59-38-59-33 0 3 12 13 28 23l38 28c19 17 11 18-16 1a69 69 0 0 0-32-14q-8 1-20-3c-7-3-15-4-16-3-4 5 16 21 30 25 22 5 13 19-10 16q-6 0-7 5 0 5-4 2-5-3-5-12c0-12-1-12-30 3-24 12-24 12-33 3s-9-9 4-16c23-12 26-17 16-26q-9-8-10-14t-12-9q-14-3-10-13 2-9-6-14-17-10-15 23l1 32c0 12-5 20-37 49-40 36-43 39-103 63l-37 16-47-8c-72-12-73-13-76-22q-3-10-11-10-9 0-9-7-1-7-8-7-6-1-7-9 0-10-10-14c-11-4-11-4-1-9 13-7 10-35-3-35q-9 0-10-4 2-5 12-5c13 0 16-9 7-18q-7-7 2-6 8 0 8-10 0-8 5-9c3 0 16-9 28-19 13-11 28-19 34-19q33 0 33-17c1-10 1-10 8 0 7 9 7 9 4-9q-4-20 2-15c6 3 24-12 24-21q1-5 5-5 5 0 5 5 0 4 5 4 5-1 5-12 0-10 4-11 5 0 5 8-1 10 8-3 13-19 20 0c5 11 5 11 10-2 6-14 15-13 15 2q-1 18 18-3c10-10 13-11 20-6q8 6 9 12c0 8 10 7 21-2q12-14 7 5c-2 11 0 14 11 20q13 7 14 12t7 2q8-2 18 5 8 8 11 6 0-5-19-21-32-29-9-23 11 4-1-5c-5-5-14-11-19-14q-8-6-6-10c4-4 41 17 63 37q15 12 17 10c0-6-38-45-44-45q-4-1-18-14l-15-13 11-3q15-4 1-7c-5-3-18-4-29-3-25 1-27-6-4-10 15-3 50-1 63 3q3 1 5-3 0-4-7-5l-11-2-14-3-34-6c-20-4-20-4 12-3 19 0 38 2 43 4q13 5-2-5-11-10-44-13c-19-1-37-5-42-7-5-3-17-5-26-5-19 0-23-8-6-14 11-5 11-4-14-13q-10-2-2-7 9-3-7-7-14-3-71 9c-70 16-122 21-122 13q-1-5-11-5c-6 0-21-3-33-6q-21-7-47-4-25 4-29-1c-4-6-85-11-85-5q1 5 5 10 8 6-1 11-16 11-12-7 3-11-2-12-4 1-5 9 0 9-7 10-6-1-7-9 1-9-12-7c-9 2-11 4-9 14q6 19-19 6c-19-9-24 0-14 19 12 20 4 24-13 8l-14-14-4 12c-10 27-9 26-13 15-5-15-12-9-12 9q0 14-5 12-6-3-6-17 3-25-13-6c-6 6-7 11-3 26 5 20 3 24-8 20q-10-3-6-20 4-18-5-15c-7 2-8 6-7 21l1 19-7-13q-13-24-19-3-4 11-10 3c-9-7-10-5-15 14q-4 13-9 15c-5 0-5-18 0-39l4-14-15 8q-18 8-10 14 6 7 0 17-4 10-3 25 5 16-3 12l-14-6q-8-4-20 15-12 17-13 23l-6 12c-4 4-10 15-13 24-7 20-25 40-46 53-20 12-34 40-27 52q6 7 20 7 13-1 15 3-1 4-7 4-6 1-7 8c0 12-17 6-18-6-2-14-14-18-21-6q-7 9 5 23 16 21 5 20-5-1-11-13l-7-12-10 25c-5 14-12 37-13 50a360 360 0 0 0-15 215q0 4 16 6 30 1 23 11-4 3-17 2c-12-2-14-1-14 9 0 11 2 12 19 12 23 0 26 9 5 13-19 3-16 12 6 18q17 4 17 9c-3 7-22 10-30 3s-12-1-7 10q5 7 26 12c12 1 22 5 22 7 0 7-17 13-25 9-9-5-16 2-12 12 4 9 26 9 43 0q13-6 16-5c3 3-14 22-25 27q-13 4 2 4c6 0 20-2 30-5s20-4 22-2c5 4-14 16-33 19q-16 3-18 8c0 6 19 5 45-3l26-7c5 0-18 21-28 24q-10 4-8 9c3 5 39-6 50-16q21-16 20-6-1 8-11 17t-4 10c9 0 36-15 40-22 6-10 14-8 12 4q-2 12-19 20l-18 12q2 3 18 2c15 0 24 4 39 16 23 18 51 33 55 29 5-6-43-47-51-45-10 3-13-13-4-18q5-5 5-21 0-29 18-29c5 0 6 3 3 17q-4 20 5 14c6-2 7 0 4 15s-2 16 4 14q10-4 6 10c-2 10 1 15 13 24 11 9 15 10 20 6q5-5 14-5c9 0 9 0-1 11q-21 22 4 16 28-5-1 8l-15 7h20c20 1 23-1 41-25 7-10 7-10 8 1 0 6-6 18-14 25-18 18-8 18 13 0m994-2q-6-5-6 2c0 10 7 17 9 9q1-6-3-11m571-12c-3-11-13-28-22-38l-14-13c2 10 39 74 41 73 1-1-1-11-5-22m-1674 7c0-8-13-12-28-6-6 1-22 2-35 0-33-5-39-5-41 2q-2 7 11 5c8-1 20-1 26 1 24 6 67 5 67-2m277-4q-1-7-7-8-8-1-10-7c-5-12-15-8-21 7l-5 16 21 1c18 0 22-2 22-9m305 6c0-12-15-33-21-30q-7 2-5 6l7 16c4 12 19 18 19 8m780-3-12-21-9-12 8 21c8 19 17 28 13 12m-977-9q12 4 11-7c0-9 0-9-22 0-13 4-24 11-25 15q-3 7 11-3 13-8 25-5m1246 0q-5-10-10-12-2 2 4 12 7 11 10 12zm-1485 0c5-13-1-17-7-5q-5 12 0 12 4-1 7-7m1093-10c-11-20-52-62-54-56-1 3 11 19 26 35a157 157 0 0 1 32 37q2-4-4-16m130 0q-5-12-8-8c-2 6 8 28 11 24q2-3-3-16m-768 3q-1-5-6-12-18-20-27-35l-29-39a98 98 0 0 1-22-32c5-4 17 3 21 12 1 4 12 19 23 32s23 31 28 40q15 23 17 11c0-7-29-49-45-66-23-25-11-24 14 2q38 38 50 62c4 10 5 10 19 3 16-8 15-11-5-41q-15-19-4-18c2 0 12 11 22 24 9 13 20 24 23 24 10 0 9-5-10-25-18-20-24-41-7-25 5 4 16 18 25 31q15 21 19 23 9-1-23-43c-11-16-18-28-15-28s18 12 33 27c29 29 37 29 16 1-14-18-14-19-6-19 3 0 15 10 26 23q42 42 6-8c-20-26-22-38-4-21 6 4 17 18 24 29q14 18 21 20 7 0 7-3c0-5-20-32-30-41q-10-7-7-11c2-2 17 10 33 26 30 32 42 36 22 7-14-19-12-34 2-17q17 20 9 2c-13-25 0-19 18 7 9 12 17 21 18 19 3-3-7-22-19-35q-9-11-3-11c3 0 20 14 36 33 17 17 31 29 31 26 0-6-19-31-27-37-4-1-8-8-11-12q-13-27 35 22c18 18 33 30 36 28q6-4-6-17l-22-27-10-16 12-5q14-6 17 1 3 6 6 0c4-5 28-3 42 5q10 6 2-8-5-13-20-12-14 0-17-3c-4-4-24-6-114-10-106-5-159-3-199 5q-51 11-49-3c0-3-4-14-9-25-5-10-10-23-10-28 0-16-39-93-51-99q-27-16 5 30c19 25 28 47 20 47-1 0-10-12-19-27-16-27-38-48-44-43-1 2 6 12 17 22 11 11 20 22 20 25s6 18 15 34c8 17 13 34 12 41q-1 17-7-9c-8-26-20-51-30-59q-7-6 2 8 7 14 7 21-1 9-15-14-12-21-18-23c-2 0-10-6-16-13q-11-12-15-10c-4 5 6 21 23 38 11 10 32 61 32 76q-1 18-20-30-13-35-35-57c-33-35-34-21-3 22 21 27 31 47 39 73 10 34 24 50 16 20q-4-19 5-10c4 4 12 16 17 27 5 10 19 30 33 44 13 14 27 33 32 42 7 16 21 23 21 12m1250 1c0-12-75-87-87-86q-3 0 8 10c20 15 58 53 68 68q12 18 11 8m-1875-5q-1-11-43-11c-14 1-36-2-47-6q-37-14-25-2c13 13 115 30 115 19m1541 1c0-7-20-45-24-45-7 0-2 22 8 38 6 9 16 14 16 7M666 927c1-19 0-27-6-32q-4-5-3 8c3 16-13 35-18 21-4-10-11-10-11 1q0 9 10 12c25 5 28 4 28-10m27 0q3-19-14-2-17 16 2 14 11-2 12-12m187 5q-1-5-11-18l-22-26-9-12-1 12q1 12 18 29 25 26 25 15m1078-7q-7-10-14-12-5-2 5 10 22 23 9 2m126-8c-7-13-35-34-35-26 0 3 40 44 42 42 1 0-2-8-7-16M618 906c0-27-9-67-14-64-6 4-12 72-8 82q3 6 12 7c9 0 10-3 10-25m102 22c4-5-2-16-9-14-10 5-13 17-3 17zm174-20q-52-57-52-40c0 2 10 15 23 31q22 28 34 27c11 0 11 0-5-18m-150 7c13-10 8-20-6-11-10 8-14 17-6 17zm-45-18c0-11-13-13-18-2-2 8 8 18 14 14q4-4 4-12m-74-55c-7-15-13-32-14-37q-1-7-4-8c-8 0-6 20 2 34q11 16 22 59l3 14 2-17q1-17-11-45m102 47c-3-12-14-13-14-2q0 9 8 10 7 0 6-8m569-14-20-24q-5-6-10-4c-5 4 29 46 38 46q6 0-8-18m-634-3c4-9-20-56-27-56s-5 9 12 52q9 19 15 4m34-2c-6-15-7-16-14-10q-7 5-2 12c9 9 20 8 16-2m53-12c0-9-5-22-9-29-9-14-16-14-9 0 3 9 4 14 6 36 1 20 12 14 12-7m570 15c0-10-8-21-12-18q-2 4 3 13 9 17 9 5m-596-11q-1-14-14-8c-9 6-3 20 7 17q7-4 7-9m945 5q-1-7-6-11-5-3-14-18-10-17-9-5c0 11 17 40 24 40q4 0 5-6m137-4c-2-15-13-17-13-2q0 12 7 12 8 0 6-10m-293 3v-10q-3-7-9-1-6 4-13 1c-9-5-47-8-47-3q1 16 39 16c14 0 28-2 30-3m127 1-7-18q-12-22-4 9c2 9 11 16 11 9m191-6c0-15-8-24-15-18q-6 5 0 16c7 12 15 13 15 2m69 3q-20-9-14 0 3 5 13 4 15 1 1-4m29-25q-3-33 2-14 4 15 9 19l7 13c2 5 2-4 0-19-1-16-3-30-5-32q-3-4-23-4t-21 4l9 20 23 43c1 0 1-14-1-30m216 22q-6-7-20-14l-15-7 16 14c16 16 31 21 19 7m-558-16q-6-13-10-14-4 0-3 3c11 23 15 29 17 28q1-3-4-17m277 15c0-6-9-12-13-9-3 3 3 13 9 13q4-1 4-4m40-16q-3-10-10-21c-7-10-7-11 2 23q3 8 7 8 4-1 1-10m102 3-4-20q1-20-5 3-5 14-10 15-3 0-1 5 3 4 13 4t7-7m-1321-3c-3-9-14-10-14-2q1 7 8 8 7-1 6-6m922-6q0-12-7-12c-9 0-10 2-2 14q11 19 9-2m270-8-3-21q-1-7-12-7-21-2-2 28c12 20 21 20 17 0m92 1c0-18 10-25 10-7q-1 20 6 3 9-20-21-20c-14 0-19 10-9 16q5 4 5 13 0 8 5 9 3-1 4-14m53-2c0-18-6-27-12-18-4 7 2 34 8 34q4-1 4-16m-1305 6q2-4 0-9c-4-6-17-1-17 7s12 9 17 2m1133-2c0-12-14-36-21-36q-17-1-1 24c10 19 22 25 22 12m-94-17q-9-20-19-19-25 1-1 20l18 14q2 3 5 4 4-1-3-19m22-7c-10-11-19-12-19-3q1 6 14 17c11 11 13 12 14 5 1-4-3-13-9-19m277 11q0-21-4-4-3 12-2 16 6 10 6-12m-1379 1c0-5-9-11-13-8-3 3 3 13 9 13q4 0 4-5m1138-6q-6-21-19-17c-7 1-7 3 3 15 12 16 21 17 16 2m222-2q0-10-4-9-5 3-2 12 5 20 6-3m-1331-2q7-4 4-7c-5-4-23 2-23 8s10 5 19-1m897-14c0-10-7-19-16-19l-2 19c-1 16 0 18 8 16q10-3 10-16m-74-10-5-21-1 16c-2 18 2 31 8 28q3-5-2-23m29 10-3-22q-1-7-6-7-8-2-2 22c6 24 16 30 11 7m-927-18c-4-37-9-49-21-49q-8 1-9 5 1 5 10 5 11-1 8 9c-2 9-1 17 9 52 3 14 5 3 3-22m41 16q9-8-6-7c-12 0-20 5-14 11q9 7 20-4m327-3c-3-4-20-1-24 5q0 3 12 1 14-2 12-6m281 6c3-4-13-20-21-20s-5 18 4 21c14 3 15 3 17-1m214-16 2-18h-20q-34-1-13 27c12 18 27 13 31-9m-543-1q-6-14-14-3c-4 7 8 21 13 15q4-4 1-12m-154-9q-9-8-2 14 4 12 5 0 2-8-3-14m227 13c2-6-23-21-32-21q-5 1 7 14 21 21 25 7m189-7q-21-31-13 2 3 12 13 12c9 0 9 0 0-14m222 8-1-9q-4-7-25-9c-23-2-26 0-11 15q10 10 23 7zm505 1a546 546 0 0 0-104-4l29 7a286 286 0 0 0 75-3m-815-13q-6-10-13-13-5-1 4 13c12 15 19 16 9 0m621 8c0-3-9-4-19-4q-18 1-19 4 1 4 19 4c10 0 19-2 19-4m-1140-5c0-9-9-20-12-17-2 1-1 8 2 13q10 17 10 4m1435 0c8-10 12-31 6-35q-13-7-18 23-4 28 12 12m-820-13c-10-14-19-19-19-10 0 4 23 24 28 24zm672 2c-18-7-90-17-140-19l-71-5-43-3 14 12c14 11 17 12 88 12l115 5c56 5 57 5 37-2m-644-23q-6-17-10-5-6 8 4 15 17 12 6-10m130 8q0-7-8-4l-10 2 1 5c5 8 17 6 17-3m548-2q-1-4-7-4-6 1-7 4 1 5 7 5 7 0 7-5m-1336-5c0-7-81-72-85-69-3 4 33 44 49 53l21 15q14 12 15 1m876-12c-5-6-9 3-5 11q5 12 6 0 2-8-1-11m27 6c-7-6-13-1-8 6q2 5 8 3 4-3 0-9m33 2q-1-4-8-10-8-7-7 5 0 9 7 10 7 0 8-5m81 1q-1-4-12-9-13-7-12 1 1 6 11 8l12 3zm-654-6c0-9-11-29-17-29q-8-1 1 17c8 16 16 22 16 12m196-5q-1-4-10-4c-10 0-13 7-3 11q12 3 13-7m644 6q-1-5-6-9-6-3 4-6c14-5-14-8-41-5l-22 3 19 2 20 1-19 4c-19 6-34 3-29-5q5-9-9-2c-17 7-8 16 17 18 52 3 66 3 66-1M763 723c-7-10-16-16-16-9 0 6 12 21 18 21q6 1-2-12m160 10-5-12q-7-10-1-19t2-20c-4-11-4-11-8 3q-3 14-8 17c-5 3 9 33 16 33zm-302-13q-7-10-16-11-10-2-18-7-10-10-6 2 1 10 14 10 11 0 20 8 19 17 6-2m360 8c0-2-10-19-18-31l-6 2c-8 5 4 31 15 31zm19-7c0-5-10-12-13-8-4 3 3 13 8 13q5 0 5-5m311-10-2-25c-1-13-6-15-26-10q-17 4-8 34 3 16 28 14 10-1 8-13m-819 6c10-6 1-13-16-13q-21-3-8 8 12 14 24 5m1123-4q-1-5-9-16l-10-12 6 16c5 13 13 21 13 12m679-11c-2-19-16-43-25-43-14 0-14 4 1 31 14 26 26 32 24 12m-1473-9-14-13 12 15q10 13 13 13 1-3-11-15m217-12q-23-39-24-22c0 5 14 26 28 44 14 16 11 4-4-22m293 16q-2-12-8-5-5 5 1 12 13 14 7-7m92 7q2-3-3-19c-6-17-9-19-33-14-13 3-15 5-16 22l-2 19 26-3zm158-6c2-13-12-44-20-44q-8-2-3 16l7 28c3 16 13 16 16 0m-572 6c0-11-31-49-36-44q-2 3 5 11c4 4 11 14 15 22 6 12 16 19 16 11m19-1c0-8-35-51-37-45q0 6 13 23 14 15 15 21 0 4 5 4 3 0 4-3m473-8q0-12-5-23-3-14-19-9c-14 1-14 2-12 19 5 23 6 24 22 24 11 0 14-1 14-11m739 9c0-5-15-33-23-41-7-10-22-12-26-5-2 2 4 12 14 22 9 10 16 20 16 22q0 4 10 4 8 0 9-2M977 686q-2-12-11-18-8-6-9-14c0-13-8-16-15-5q-4 10 0 10 6 1 12 6 10 6-6 16-11 9-9 14 4 3 13-6c10-9 10-9 19 1q13 21 6-4m109-5q0-7-5-6-5 3-5-5c0-4-7-15-14-24q-16-17-17-9c-3 8 9 29 20 33q5 4 6 14 1 11 4 14c4 5 11-6 11-17m-361 2q2-5-7-10-12-7-8 1 1 6-2 15-7 10 5 4zm900 5q-1-5-7-10-11-11-5 7c3 8 12 10 12 3m-692-21q-5-7-5 9 0 18 5 5 6-9 0-14m1238 7c-7-13-24-24-29-19-4 5 12 27 21 29q21 8 8-10m-1399-5c-2-10-16-15-16-5 0 5 16 20 18 17zm133-4c-5-8-5-8-8 0q-3 9 3 13c9 6 11-2 5-13m-371 3c-4-5-11-9-13-9q-4 1 6 9 24 18 7 0m389-8c0-8-8-17-11-11q-3 5-1 10c4 5 12 6 12 1m-14-25q-1-5-10 1-8 5-9 10 1 3 9-2 10-4 10-9m-49-5q-4-14-9-17c-7-4-29 2-25 8q3 5 12 3 8-2 9 3c0 6 10 17 15 17q3-1-2-14m-62-4c1-11-14-16-22-9q-12 11 8 15l13 2zm1438 5q-2-5-17-23-15-16-17-13 1 6 12 16t12 18q0 5 5 6 5 0 5-4M946 616q-19-24-16-7l5 14q3 7 12 7c10 0 10 0-1-14m-57 5q6-5 4-12c-4-10-13-10-13 0q0 8-7 5-6-3-7 4c0 8 13 10 23 3m39 0c0-7-18-27-21-23-5 4 10 27 16 27q5 0 5-4m81-13q-10-10-13-9c-3 3 15 25 19 23q3-3-6-14m24 1q-5-8-9-5-1 2 4 9 6 8 9 5 1-2-4-9m-210-6-13-8q-6-5-6 4 0 7 13 7 12-1 6-3m135-2-27-36c-12-16-24-31-27-33-8-4 5 24 16 36 6 7 15 18 19 25q9 13 16 13 9 0 3-5m14-10c-1-5-10-19-21-30a303 303 0 0 1-39-45q-2 2 13 23c10 13 17 26 17 29q0 4 5 5 5 2 12 14c9 16 17 19 13 4m1254 7q-1-6-12-18c-15-18-16-12-1 7q15 21 13 11m-57-9c0-10-29-45-38-45q-12-1 7 18 11 11 10 18-2 6 1 5 5-3 8 2c3 5 12 7 12 2M984 575q-8-5-8-11-1-5-7-8t-7-10q0-7-5-7-13 0 11 28c8 11 17 18 19 16q4-2-3-8m-305-1q1-6-9-15c-13-12-10-18 5-10 13 9 18 2 7-10-10-11-35-12-35-2 0 4 4 16 10 27q15 28 22 10m125-1q1-5 10-5 16 1 4-11l-20-26c-18-26-23-23-6 6q11 20 7 24-4 1-15-14-17-27-11-4c6 21 31 44 31 30m-219-4q-2-10-11-8c-5 3 0 12 6 12q5-1 5-4m-20-20q0-7-10-13c-8-6-11-6-17 1q-9 6-1 14c7 9 26 8 28-2m29 1-8-10-6 2q-6 3 3 10 20 13 11-2m25 0q-5-2-6-11c0-11-7-16-12-9-4 6 17 30 21 26q2-4-3-6m-54-36c-9-17-83-82-105-94q-43-22-6 10l95 82q31 28 16 2m1501 3q3-7-2-12-3-5-2-11c2-6-25-26-36-26-9 0 8 18 19 21 11 4 12 17 2 17s-9 8 1 14c12 7 14 6 18-3m-1563-1c0-5-14-11-17-8q-2 2 1 7c4 6 16 7 16 1m94-1c4-8-6-16-15-12q-10 3-2 10 10 13 17 2m35-8c0-7-74-82-80-82-3 0 9 14 26 31l39 43c7 12 15 16 15 8m1364-4q-8-7-11-6c-5 5 2 14 11 14q10 1 0-8m-34-10q-7-7-11-5c-5 5 3 13 12 13 7 0 7 0-1-8m-1272-7q1-12-8-4c-7 6-5 14 3 14q5 0 5-10m-108 1q3-3-2-7c-6-4-20 2-16 7 3 6 14 6 18 0m1329 0c0-7-13-15-19-12q-6 3 0 10c7 7 19 9 19 2m-33-2-10-8q-11-6-9 3 1 7 9 7zM563 475c7-3 7-4 0-12q-8-9-15-9-6-1-6-9c0-15-33-39-51-39q-12-1 3 11 12 10 11 16c-3 7 17 21 28 21q8 0 9 6 0 5 5 12c7 6 6 6 16 3m112-5q0-6-5-7c-2 0-21-18-42-39-21-22-39-37-39-35 0 3 11 16 24 29l42 42c19 20 20 20 20 10m260-21c11-5 23-10 27-10 8 0 50-20 59-29 7-7-7-18-22-18-7 0-15 2-16 4-6 10-11 0-9-14q3-14-2-14-5 1-6 9c0 10-12 14-15 5q-1-6-15 0-23 8-2 17 10 6 15 18c6 17-1 22-29 22-11 0-21 3-22 6q-2 6-10-4t-23-16a247 247 0 0 1-73-62c-15-21-16-12-1 12 19 31 41 53 56 57q17 2 12 12-4 9 10 11c31 4 49 3 66-6m-258-12c-3-7-11-11-11-3 0 4 10 15 13 13q1-2-2-10m141 0-11-14q-10-10-13-18-3-5-7-3c-3 3 22 37 28 37q3 0 3-2m1274-15q-6-9-10-1-6 13 8 10 9-2 2-9M845 386c-9-10-17-21-17-23q-1-5-13-11c-8-3-18-9-22-12-6-5 5 10 23 31q31 38 39 36 8-1-10-21m-324 7q-7-7-11-5-2 4 6 10 20 12 5-5m369 1q0-12-11-17-11-6-23-18l-14-12v12q-1 12 18 26c10 7 19 15 19 17 4 9 11 3 11-8m-461-16q-9-9-13-10-4 1 6 12c14 14 19 12 7-2m636-9q10-13 11-19c0-8-88-93-90-87-1 3 6 13 14 21 35 35 56 68 50 80q-3 6-5-4c-5-15-30-14-34 1-7 28 33 33 54 8m-158 3q0-4-11-10-21-10-31-33c-4-11 3-12 11-2q6 8 20 17c11 8 15 9 20 5q17-12-7-17c-9-1-23-9-33-17q-28-23-21-7 2 7-3 7c-7 0-6 14 2 17q6 4 7 9c0 7 33 36 39 36q4 0 7-5m126-28c0-7-21-37-27-40q-5-2-6 4 0 7-5 7-4 0-5-5 0-4-5-4-3 1 4 14c9 16 18 19 13 5-5-16 4-11 14 7 8 16 17 22 17 12m-196-13c0-8-13-21-21-21q-15-1 4 15 17 14 17 6m107-12c-3-5-16-5-16 0q1 11 13 7 5-2 3-7m256 6c0-6-9-12-13-8-3 3 3 12 9 12q3 0 4-4m-281-6c0-7-21-26-39-35-14-7-14-7-10 2 8 13 35 39 42 39q6-1 7-6m140-16q-12-15-15-15c-3 3 19 32 23 32q4-2-8-17m165-7c-27-26-52-41-56-36q-3 2-1 4l25 20c52 42 73 50 32 12m-36-5c-3-5-21-15-21-12l8 10q9 9 2 11-5 2-6 9-1 10 10-2 10-10 7-16m-118-5q-17-29-5-25c8 3 9-4 1-12-8-7-21-7-16 0q2 4-13-3l-16-9 17 19 26 32c11 16 16 13 6-2m-120-8q-9-10-8-1c0 10 11 21 14 14q1-6-6-13m365 5c-3-1-17-12-30-23a89 89 0 0 0-28-21q-4-1-4-7a239 239 0 0 0-118-92c-1 1 12 11 28 22 49 32 74 59 66 70-8 9-1 22 10 19 7-3 48 19 57 31 6 8 21 13 23 8q1-5-4-7m-399-16q-9-8-13-9-4 1 4 9c4 6 11 10 13 10q4 0-4-10m119 3c-3-7-26-24-26-18 0 4 20 25 25 25q3 0 1-7m89-2q-1-5-15-17c-13-13-14-14-14-4q1 11 11 18 18 12 18 3m-167-11q-9-20 7-9 7 6 7 1-2-9-20-16-9-4-7 7 5 26 13 27 5-1 0-10m120-13c-2-9-11-19-11-12 0 4 10 21 12 21q2-1-1-9m-86-10q-19-15-20-6c0 5 18 15 26 15q4-1-6-9m295 3c0-9-22-33-28-31q-5 2 7 20 20 27 21 11m-358-12q-1-5-9-5-9 0-12 5-2 4 9 4t12-4m268-26c-11-11-21-18-22-16q-1 3 17 23 20 18 23 17c1-2-7-13-18-24m-29 2c-5-8-26-24-32-24-4 0 32 33 36 33zm75-15q-12-8-18-9c-8 0 15 18 23 19q5-1-5-10m32-10c-11-11-26-20-30-17-1 3 31 26 37 27zm-116-5c-9-11-38-24-46-21-11 4-4 14 7 11 5-1 15 2 22 7q26 16 17 3m28-47c-20-13-38-20-38-15 0 12 21 23 45 24q11 1-7-9m-41-38-43-17-14-3 12 10q12 9 29 13c9 2 20 5 23 7q7 4 15 4c4 0-7-7-22-14m-69-7c0-3-31-17-39-17q-12 1 17 13c18 6 22 7 22 4m902 1341q1-34 43-84c16-19 28-35 27-36-6-6-44 33-55 55-18 33-31 86-20 79q5-3 5-14m-52-11c10-12 19-34 15-36q-5 0-17 21c-13 23-12 32 2 15m691-1c0-5-36-29-44-29-6 0 6 12 25 25q20 14 19 4m-1605-19c5-22 34-53 66-68 16-7 34-13 40-13 19 0 15-9-5-11-35-4-86 23-101 53-9 18-15 53-8 53q6-1 8-14m1112-13q-3-8-3-16 0-9-5-7c-5 3-6 23-1 28 6 6 12 3 9-5m101-62q8-12 0-11c-11 0-52 49-52 63 0 7 44-36 52-52m227 31c-6-5-49-12-44-6 2 2 12 5 22 7 26 5 27 5 22-1m-1163-24 14-6-20-2q-19-1-36 9l-16 10 22-2zm1061-2c11-11-4-8-18 3l-13 10 12-3q12-3 19-10m-1303-25c-9-3-33 14-33 24 0 8 2 8 19-7q17-14 14-17m434 22c20-10 19-19-2-15l-19 2 16-7c9-4 19-7 22-7q7-1 12-8 7-6 16-7c11 0 51-35 51-44q0-4-7 1c-13 11-8-3 7-19 19-20 20-36 1-25-3 2-11 16-19 30a84 84 0 0 1-34 37c-10 6-20 9-20 6q1-5 9-8c12-4 34-26 34-34q1-5 4-6t10-15c4-8 11-19 15-23q8-8 11-17c7-16 18-61 16-63-1-1-9 16-17 37-21 53-66 100-118 127-44 22-68 23-114 7q-35-11-9-7c35 6 80 2 104-9q42-21 2-15c-19 3-20 3-11-5q9-6 17-7t14-7q8-9-4-8-9 1-13 6-4 4-46 4-44-2-45 3c-3 7 13 11 36 11 10 0 21 2 24 5 14 9-17 11-47 3l-29-8-23 15c-21 13-81 36-101 40q-7 2-6 5 4 11 67-10c39-12 39-13 61-5q35 15 12 17-8 0-15-7c-9-11-52-3-99 18-24 10-24 18 0 8a511 511 0 0 1 162-2q23 0 20 1-6 2-6 6c0 11 39 10 61-1m567-42 18-20a272 272 0 0 0 39-273c-3-3-15-17-26-33-24-31-66-70-75-70q-20-1 7 35c28 37 38 73 36 126a216 216 0 0 1-12 77q0 13-14 29c-13 15-14 18-14 59 0 23-1 59-3 79l-3 37 23-22zm37 33c13-6 61-70 72-96 4-10 7-24 7-31-1-11-2-9-14 14-20 40-45 76-62 89-16 11-28 29-20 29zm-93-16 3-34q2-24-2-16c-6 9-10 62-5 62q4-1 4-12m-902-5c7-6-5-6-19 0l-16 8 16-4zm1125-19c6-12 11-23 9-25-3-3-3-4-16 19q-15 28-8 28zm-56-26q10-13 7-18-2-2-7 4l-18 25c-9 10-15 21-15 24 0 5 8-4 33-35m-574 17q12-11 8-12-7 1-19 12-12 10-8 11c3 0 12-5 19-11m671-21c6-19 7-29 4-41q-5-14-5-5c0 5-7 23-15 39-17 37-17 40-4 35q12-3 20-28m-937-3q6-6 1-7-4 1-10 7-6 7-1 7 4 0 10-7m917-17q3-13 0-14c-4 0-10 16-10 28q1 14 10-14m-627 9q2-5 7 1 3 8 15-5c10-9 13-16 13-36 0-32 8-82 17-100 3-8 9-28 11-45 3-16 7-33 10-36 11-14 14-35 5-47l-15-24c-3-8-13-20-22-28a49 49 0 0 0-41-13h-25l20 18c32 28 45 55 45 93 0 18-2 32-5 32s-5-11-5-24q0-48-47-92c-13-13-25-23-27-23-5 0 6 17 16 26 6 5 17 19 25 32 12 19 14 28 16 62v26c-4-24-13-27-9-3 7 50 5 73-9 103-11 24-13 30-7 39 4 8 4 14-3 30-7 18-7 19 2 19q9 0 13-5m-93-14c22-17 65-88 71-115a203 203 0 0 0-20-137c0-10-42-58-51-58q-9 0 8 14c18 18 41 66 46 99 2 17 0 35-7 62-12 51-20 68-38 86q-14 15-15 27t-5 13q-7 1-19 9l-12 10h15c8 0 21-5 27-10m617-13 13-27c3-5 6-22 7-38 2-32 4-37 11-27q5 9 5-6 0-14-7-11c-6 2-8-3-7-30 1-24-1-36-10-52-11-22-18-25-10-5a343 343 0 0 1-17 209c-5 17 6 8 15-13m-771-4a366 366 0 0 0 35-151c-1-2-9 11-18 27q-17 31-17 52c0 11-3 31-7 44s-7 28-7 32c0 13 9 10 14-4m83 3a149 149 0 0 0 98-121c19-71 18-75-7-113-32-49-76-86-66-56 2 6 4 48 4 92v81l-15 32c-16 34-36 64-51 75q-20 16 37 10m-40-30q2-6 15-19c15-15 18-24 6-19-6 2-7-1-4-21 2-13 5-25 8-28 5-6 5-86-1-110l-10-38c-3-10-11-30-19-45-8-14-14-29-14-33s-10-15-22-27a61 61 0 0 1-23-32c-1-17-22-39-47-49a107 107 0 0 1-32-17q-17-1 28 46l42 48a570 570 0 0 1 58 111c3 0 6 9 7 19l8 39c8 38 6 91-7 141-15 57-15 66-2 50zm793 6c9-41 5-121-9-157l-5-12-8 13q-7 13-6 24c21 81 25 122 15 144q-4 9 3 6t10-18m-1067 6c-4-4-40-15-47-15-8 0-2 9 10 13 16 6 43 7 37 2m536-62q1-10-4-8c-7 4-11 29-7 46l4 16 3-22zm597 41q1-13-5-4-9 14 0 14 5-1 5-10m-1069-14q20-15 9-16c-8-4-15 0-46 19q-29 17 3 13c10-1 24-7 34-16m1048-27q-4-21-6-16c-1 3-1 16 1 28q4 21 6 16c1-3 1-16-1-28m29-16c-4-41-17-93-28-116-16-33-54-90-67-100q-30-19-1 14c9 10 25 32 34 47l23 36c11 13 25 63 32 107 6 47 12 55 7 12m-15 0c-1-14-5-29-8-32q-5-10-2 11l5 29 2 13q1 3 3 3c2 0 2-11 0-24m-813-13q-2-10-6 2-4 9-4 19-1 13 7-2c3-7 5-16 3-19m367 510q-1-4-10-15-11-15-6-2c5 16 16 27 16 17m773 26q0-6-5-10-4-1-5 7 1 9 5 10 5 0 5-7M150 1728c0-6-9-12-13-9-3 4 3 13 9 13q4 0 4-4m1637-128c0-7-9-18-12-15-4 4 2 18 8 18q4 0 4-3m856 85c-8-17-38-42-53-46q-33-9 6 21c15 12 29 26 32 32q4 11 14 8c8-2 8-3 1-15m-35-67c0-4-5-14-10-21q-12-15-2-13 7 1 10 8 3 6 7 7c6 0-9-29-23-44-15-16-10-18 7-3 18 17 11-3-11-31-10-12-26-19-19-8 2 2 4 18 5 34 4 42 6 51 18 67q17 23 18 4m-658-37c-5-10-11-28-13-40q-5-42-17-29-7 6 0 11 5 8 5 23 1 18 16 41c16 27 23 22 9-6m-50 22c1-1-6-14-13-28-17-29-24-29-12 0q7 18 6 23-3 1-8-12c-10-26-13-32-15-27-2 2 0 14 3 26 7 21 8 23 22 21zm725 126q5-26-26-56-27-23-14 3c4 6 9 19 10 28 3 16 3 16-8-5-6-12-16-28-22-35-13-14-37-29-41-26-2 2 9 15 24 30 24 26 44 64 38 74q-1 4 5 8c13 8 31-4 34-21M951 1879c8-7 7-14-1-10-8 3-14 16-9 16q5 0 10-6m184-21c6-25 3-46-7-54l-17-10c-9 0-3 13 7 16q9 2 9 22c1 11-1 21-4 22-5 3-1 12 6 12q4-1 6-8m154 28c-3-4-36-2-36 2q1 2 19 2 18-1 17-4m-299 44q-5-6-14-7-9 0 2 7c12 9 20 9 12 0m933 142c24-18 42-38 37-40l-17-6c-10-2-13 0-22 13-5 9-15 21-21 27q-12 11-13 16c0 8 19 3 36-10m-403 185c0-6-18-6-21 0q-3 4 0 6c4 4 21-2 21-6m471-267c12-6 14-14 4-14-5 0-17-4-27-9-17-8-19-8-25-1q-7 8-10 20c-3 11-2 14 5 17q9 3 13 10c3 5 6 4 17-5q12-12 23-18m-105-76c-11-18-18-9-8 10q5 9 10 5t-2-15m-1003-10c10-3 26-7 35-8q16-2 15-12c0-9-2-9-23-6q-24 4-17-3c3-2 13-6 21-7 38-5 47-7 52-14 5-6 3-7-15-5l-34 6q-34 15-39 7c-3-6 11-15 20-12 7 3 49-22 57-34 4-6 7-17 6-24-2-11-3-10-24 16-20 25-26 29-45 32q-22 3-32-2-15-7 5-3 23 5 51-21c15-12 32-39 30-44q-2-4-11 9c-20 32-77 56-96 42-8-7-7-7 12-8 30 0 48-10 73-38 13-15 22-27 20-28-1-1-10 4-19 11q-35 23-7-7 15-14 15-27 0-18-7-4l-7 12c0 6-50 37-63 40-22 5-16-5 8-14 25-9 45-27 45-38 0-6-3-6-19 3q-18 9-28 8-10-3-13 2c-6 9-58 5-86-8-15-7-26-13-24-15q4-3 14 2c18 8 29 12 50 16q30 5 14-9-6-6 2-6 8 1 11 5c6 9 47 5 62-5 8-5 19-9 25-9 14 0 46-29 40-38-4-6-6-6-16 1q-12 7-20 8t-12 12c-3 8-10 12-29 17-13 3-25 4-27 3q0-3 18-8c31-8 33-9 33-14 0-3-10-6-22-6q-23 0-9-3c62-7 84-20 80-44-2-16-12-18-21-6-8 11-38 30-47 30q-5-1 6-8 13-6 13-11 1-4 16-13c19-9 33-25 50-56 19-33 21-37 38-55q14-14 16-20 1-5 9-2 9 3 21-4l12-9-14-21a52 52 0 0 1-13-45c3-31 36-80 55-80q5-1 6-6 0-5-8-2l-12 3c-6 0-44 37-51 51-8 16-15 50-12 65q2 15 12 11c32-8-30 65-67 79-11 5-22 8-23 6-3-2 20-12 27-12s53-47 53-55q1-18-26 12-15 18-20 19l-27 12q-22 10-36 8c-11-2-10-3 11-8l27-7c6 0 42-39 49-53l8-16-13 14q-34 36-87 39c-26 2-29 1-20-3 6-3 16-4 22-3 13 3 54-14 58-23q3-6 11-10 9-3 11-10 8-22-20 5c-26 26-64 34-102 23-29-8-38-18-12-13l41 4c32 3 47-7 75-47 17-25 17-26 14-57-3-34 3-60 15-60 7 0 9 8 2 12q-5 2-5 8 1 4 9-5 9-9 10-13 1-3 11-12l10-9-11 5c-6 3-17 6-23 7q-12 1-19 10-7 12-6 0c0-13 33-40 53-43 25-5 66 1 80 11q46 31 82 17l16-6-22-10c-12-5-25-13-28-17q-5-6-14-7-9 1-1-5 10-4-5-7-13-3-21-1c-10 4-31-2-28-7 2-2 24-3 50-2 34 1 48 0 55-5 14-11 20-8 7 3q-14 10-3 9 9 0 18-5c11-6 19-1 9 6l-27 9q-19 5-21 10 1 10 45 16c19 3 24 2 44-10 41-26 64-50 41-42q-6 2 8-10t15-20q1-10-13 5-14 12-26 13c-11 0-11-1 6-14l28-24 12-11-16 8c-14 7-16 7-14 1q5-10-9-2c-9 4-19 4-47-3l-36-9-25 16c-13 10-33 21-43 26q-16 9-21 15c-3 8-16 8-14 1q-1-5-18-7c-11-1-26-4-34-7q-19-5 11-2c14 1 25 1 25-2 0-6-9-9-38-13-26-3-28-5-16-13 12-10-34-32-65-32-27 0-62 9-62 15q0 3-7 4c-3 0-16 9-29 20q-19 17-21 13c0-10 45-47 57-47q4 0 5-5 1-9-14 0l-30 12c-13 4-28 12-35 18-12 9-31 41-31 51 0 7 17 6 20-1q3-4 3 12 2 30-37 41c-26 8-45 35-39 56 2 8 7 19 10 24q12 21-11 27l-51 13c-59 15-64 12-177-84-30-26-31-26-52-22-25 4-61 4-91 0-27-4-102 4-122 13-31 13-82 56-104 88-8 12-18 24-21 26-5 2-14 11-22 19s-20 19-28 23c-7 5-18 18-24 29-13 21-24 74-20 91 1 6 1 25-1 43-4 29-3 36 8 66 6 19 13 32 14 29 3-11 11-6 9 4-4 12 3 28 11 28q5-1 3-9c-3-10-3-10 10 0 37 28 84 53 81 41-1-3-13-11-26-18-36-17-67-60-71-97q-4-30 2-25 5 4 5 12c0 11 23 61 29 65 7 4 6-6-3-22-4-8-6-18-5-22q1-9 10 10c8 18 18 20 15 2-1-6 0-17 3-24 2-11 0-14-15-27-28-22-33-43-21-101 2-9 9-24 15-35l20-30q7-10 16-14c5-1 12-10 16-19q8-15 16-16c8 0 8 1 1 13-7 13-7 15 3 35l8 22c-5 5-18-4-22-16q-5-10-11-10c-13 4-40 54-47 89-9 35-7 50 8 62q9 10 4-9c-2-13 4-29 13-29 2 0 4 12 3 27 0 14 2 28 5 32q7 8 6-15 1-32 14-11 6 9-2 23c-15 30-21 46-21 58 0 8 16 28 64 75 35 36 68 64 73 64 17 0 44-13 67-32q34-28 34-18l-11 21c-9 14-17 20-34 24-31 9-34 17-4 12 26-3 42-11 63-28 14-13 27-16 56-18q14-2 26-9c6-4 18-10 27-13 27-11 27-17 1-29-13-7-24-13-24-16 0-7 15-10 22-4q6 6 22 3 18-5 12 4-2 8 4 8 6 1 8 6 1 6 16 0l14-6-14 12q-11 11-11 14c3 4 52-6 57-11q6-5-1-13c-5-6-5-8 2-16 4-4 8-12 8-15q1-7 6-14 5-6-12 2c-22 9-44 9-52 0q-6-6-25-7c-17 0-22-2-37-20l-18-20-25 5c-20 4-29 4-40-1l-14-6 17-1c9 0 22-4 28-8 16-12 41-14 36-3q-4 8 8 5c13-4 32 1 32 7q-1 5-8 12c-13 9 3 8 17-1 14-10 19-5 8 7q-13 12 3 10c15-1 25-8 36-29l9-17 1 14c1 7-3 20-8 29l-11 17h14c30 0 59-51 59-103q-1-21 7-11 7 5 7 12c0 13 9 11 17-3q11-22 14-4l2 7q1 2 8-3 11-10 5 2c-4 11 9 10 16-2 5-8 24-14 24-6q-1 4-13 17-16 17-4 11c20-8 26-9 26-3q0 5-4 5-5 1-5 7c0 10 18 9 29-1 12-10 12 2 1 14q-11 11 4 9 17 0-3 5-15 7-19-3-6-7-13-7-7-1-16-10-14-15-50-3-38 16 8 14c30-2 27 5-4 10-29 6-29 15 0 11q38-5 39 6-1 3-11 2c-13-3-65 12-65 18 0 2 12 4 28 4 15 0 30 3 31 5q3 4-10 4c-29-2-45 1-58 13q-11 11-7 12 5 0 6-5c0-6 32-6 36-1q1 5-11 5c-7-1-19 2-25 6-12 7-12 7 7 9 20 3 21 3-13 15q-11 5-11 9 2 4-15 18c-17 14-17 15-9 23l19 25q11 17 27 21c9 3 20 7 24 11 3 4 22 13 39 21 32 15 45 28 18 19q-14-5-20-3c-9 3 27 17 50 20l20 3-13-8-13-8c0-1 30-2 67-2 69 0 75 2 27 13-15 3-27 8-27 10 0 5 46 5 69-1m-610 355c2-7-30-9-45-3q-12 4 3 6c18 6 40 3 42-3m1096-42q16-3 15-8c-6-10-55-1-55 10q1 5 11 3zm842-124c19-40 11-137-12-156-12-10-12-1 3 42 14 42 14 43 7 77-4 19-9 40-12 47-7 20 3 12 14-10m-610 136q-1-5-12-5t-12 5q1 4 12 4 11-1 12-4m-1102 62q8-5-6-5-12 0-16 5c-4 6 12 6 22 0m625 138q-1-4-8-5-8 0-5-7 4-7-8-7l-21-3q-11-4 1 5c8 7 34 21 40 22zm-804-48c2-3 15-10 29-16 30-14 34-24 8-19-22 4-40 14-40 23q0 7-4 7-5 1-5 5c0 6 8 6 12 0m1328-126c-3-4-68-12-70-10q-1 4 9 7c12 5 65 7 61 3M291 2386c-9-9-12-9-23-4q-25 12 13 14h19zm2083-492q0-3-7-4-7 0-7 13-2 18 7 4 6-9 7-13M829 2393q-2-5-6-4l-12 1q-7 1-7 5 1 4 13 3 13-2 12-5m344 41c2-9 0-10-19-10q-22 0-20 6 2 7 33 13 3-1 6-9m-749-59c15-10 15-24 0-26q-10-2-19 12-8 12-15 17-5 4-6 9c0 6 24 0 40-12m1969-471q-1 8 7-1c6-8 7-8 11-1s5 7 13-5q8-13 17-10t9-4q1-7 7-8 7 0 8-7 1-6 7-10 7-2 9-12 4-8 10-9 8-1 6-10-1-9 4-12c6-2 11 13 11 31q1 9 5 10 5-1 5-14c0-18 7-19 12-1q3 18 9 4 7-9 10-2 4 6 8-5 4-10 9-7 5 2 10-4 3-8 10 0 12 11 13-2 0-6 7-7c3 0 13-7 21-16q14-16 18-17c8 0 30-40 33-60 3-25-3-38-27-55-15-10-15-11-10-1q6 10 10 13c9 5 6 59-3 68q-7 8-10 9c-10 1-20 9-20 15q0 6-6 3c-8-5-23-6-23-1q0 4-4 4c-2 0-7-13-9-29-3-15-9-35-13-43-8-17-54-59-59-54q-1 4 9 12c24 18 53 52 53 63 0 9-9 1-19-15-9-17-42-48-50-48q-11 0 16 26c18 19 42 62 37 67q-3 0-14-19c-10-22-37-53-41-49-1 2 6 15 15 30 16 26 26 54 21 54-2 0-8-12-15-26-12-26-22-34-22-17q0 8-4 11c-2 1-7 17-12 35s-11 35-15 38q-7 6-7 13-1 7-5 11-6 5-12 18t-7 9c0-10-10-6-10 4 0 16-12 8-13-9-1-12 1-19 11-29q27-28 26-93c0-32-2-43-12-65l-12-26 11 11c26 24 30 96 10 147-6 17-11 32-10 33 4 4 23-27 28-47 2-11 4-38 4-59 0-33-2-43-13-65-7-13-15-29-19-33q-6-8-3-9c11 0 39 41 44 65q14 54 15 16c0-33-7-52-31-76q-22-23-21-34 3-38-7-35c-9 4-10-3-2-11s18 7 18 25q1 32 16 40 11 10 7-7l-6-38q-4-39 12 26 6 21 14 20 9 1 11 8 2 11 8-5c6-13 7-13 13-5 7 9 21 13 21 6q-1-4-10-14-8-9-9-17c0-4-6-17-13-29-13-22-13-22-2-13 6 5 15 18 20 28q9 20 8 9c1-11-25-54-33-54-7 0-11 24-5 40 6 19 7 35 1 38-6 4-10-8-10-28q0-15-4-19c-5-3-20-31-20-37q1-4 7 1 6 6 10-3 2-9 10-2 6 5 11 3c7-5 29 10 29 18 0 4 3 14 8 22 5 9 8 24 9 33s4 18 7 19c6 2 6-3 5-37-1-31-3-35-32-70q-36-46 8-7c10 11 19 17 19 15 0-12-26-44-44-56l-22-15v-4q4-1 19 5c15 8 15 8-5-12-11-10-19-19-16-19 10 0 50 31 55 43 3 7 21 28 39 46q34 33 48 63 22 45 25 15c2-15-37-66-76-100-16-14-26-27-23-27 10-4 38 19 67 57 37 49 37 49 41 45 5-5-49-77-69-92l-40-28q-22-13-18-17c9-6-5-13-34-16-24-3-29-5-39-20-5-9-13-16-16-16-10 0-1 19 16 32q33 26-14 4l-35-15q-13-3 5-7l14-3-14-14a62 62 0 0 0-34-18q-20-3-22-12-2-10-14-7c-6 2-14 5-16 9q-6 5-16 9-14 5-8-6 3-10 0-10c-6 0-29 13-35 21-8 9-3 26 5 18q7-6 15-6 10-2 5 13l-3 20c0 15-8 19-34 16-34-3-70 2-70 11q1 7-15 6-14 0-7-3c12-2 10-9-4-13q-12-3-12-14t-5-12q-4-1-3-13c6-28 6-32 1-33q-5-2-12 3c-6 4-6 8 2 37 5 17 12 36 16 41 14 15-3 8-20-9q-15-15-20-17c-6 0-15-15-18-31q-3-14 7-26t13-6q4 15 30-10 52-49 63-100c2-14 7-29 11-34 7-13 9-57 2-86l-8-40c-1-8-5-21-9-28q-7-13-5-4l8 63c6 69 1 97-27 140-21 32-38 50-62 65-8 5-20 13-27 20-8 6-20 11-27 11-44 0-77 40-75 91 1 22 2 25 11 27 11 1 17 15 23 51 2 10 7 25 11 32 8 14 45 35 52 30q5-1 14 8 8 8 15 7c6-3 18 15 13 19q-3 3-14-2-12-5-23-6c-5 0-20-6-33-14s-25-14-27-14q-13-2-23-38-7-32-6-5c-1 9 1 24 4 33q8 21-3 9c-3-4-8-17-9-29l-8-52c-5-26-6-29-9-17-5 17-1 57 9 86q7 23 21 30 13 7 11 11-3 4-17-2c-17-9-33-43-36-79-2-16-5-29-7-29-6 0 1 66 8 84 9 22 44 49 79 60 18 5 37 13 44 19q11 8 17 9c2 0 18 13 34 29 31 30 36 33 31 21-6-16 6-2 18 23 17 35 23 57 27 103q1 5 5 3c6-4 6 5-1 18q-10 18 11 9 13-4 16-23 3-16 8-12t-7 28q-11 21-13 19 0-3-4-1-6 4 0 10c5 6 8 4 19-11 8-10 15-25 17-34q3-16 8-27 6-14 8 5c3 14 3 14 10-8 6-26 13-26 11-1-1 24-31 74-35 62q-3-13-7-1c-4 13-3 27 2 27 3 0 17-12 31-27 25-26 31-40 31-69q0-13 5-14c10 0 2 61-9 77q-9 12-10 17c0 6 28-29 38-47q18-34 12-2-3 15 1 19c10 6 19-20 23-63q3-44 7-39c8 13 4 74-7 102q-5 11 1 5c5-5 28-65 32-87 3-15-4-44-19-79-10-23-36-56-44-56q-15-2 11 25c13 13 17 20 15 31-1 13-2 12-15-11-7-15-22-32-36-43a69 69 0 0 1-24-25q0-9 20 8 8 7 12 4 3-4-5-10-8-7-7-12 3-3 24 11c12 10 26 18 30 18q7 0 6 6c-2 4 1 13 6 19 14 17 29 55 33 81 4 27-9 100-21 113-11 12-31 54-31 64q-2 15 7 0 7-11 7-2M240 2431c25-4 47-8 48-10 7-6-99 7-106 13s4 5 58-3m588-513c0-2-11-4-25-4q-30 0-11 4c21 6 36 6 36 0m1479-9q-2-3-18-1l-18 3 15 3q21 5 21-5M217 2197q13-4 14-6c0-5-32-1-36 5q-6 7 22 1m81 22c0-6-14-6-24 0q-8 5 9 5 13 0 15-5m-43 5q9-5-7-5c-24-1 0-9 37-12 18-2 32-5 32-7 0-3-78 2-107 8l-19 3 29 7-14 1q-11 1-11 4c4 6 52 7 60 1m779-307c6-4 17-8 24-10 7-1 19-12 28-24s19-22 21-22c7 0 7-33 0-33q-6 1-12 15l-18 29c-14 16-54 37-74 37q-12 0-13 4 1 5 13 7l16 2q3 1 15-5m1311-36c9-7 15-16 14-19q-3-2-23 14-21 18-14 19c4 0 15-7 23-14m-1313 12q5-6 18-11 20-8 39-58l8-21q5-10-6-9-9-1-13 18c-3 20-19 49-26 49q-14-2 0-23c9-13 18-48 13-48-2 0-9 10-15 22-14 28-23 36-49 43-10 4-25 10-31 16l-11 9h12c7 0 25-3 40-7 16-4 29-7 30-6 4 5-33 18-56 21q-50 9 10 11 33 0 37-6m80 5c10-15 0-16-15-2-13 12-13 13-3 13 5 0 14-5 18-11m-408-8c-13-10-24-13-24-6 0 5 30 20 33 17q2-2-9-11m623 9c-4-5-65-6-65-1 0 2 15 5 34 5q34 2 31-4m-70 0q-1-3-6-4-7 0-10 4-2 5 6 5 10 0 10-5m592-310q-7-25-15-24-11 1 6 25 17 26 9-1m-307-745-2-9c-3-12-25-18-58-16-39 2-50 4-52 11-2 6-2 6 49 5 32 0 43 2 63 9m-517 992q12-9 13-14 1-7 7-19 6-13 2-16-5-3-2-10v-7l-11 22q-10 21-31 37c-12 8-22 17-22 19 0 6 29-1 44-12m-479-54c10-11 3-13-7-2q-7 9-4 10 6-1 11-8m741 72q3-5 0-9c-2-3-20 8-20 12 0 7 18 4 20-3m677-280q-9-18-10-14c0 9 14 41 17 38q1-5-7-24m-449-13q0-12 6-19c7-7 0-13-9-7q-8 5-10 28c-2 21-1 22 5 17q8-7 8-19m410 38q0-5-7-5-7-1-7-9-1-9-7-15c-10-8-10 1 0 19 7 14 21 20 21 10m735-125c-31-43-157-120-157-95q1 5 6 5a670 670 0 0 1 147 106q12 18 13 7c1-4-3-15-9-23m-707 36c0-28 0-31-7-25-5 5-6 13-3 32 1 13 4 24 6 24s4-14 4-31m745-7c0-13-14-37-34-56-11-11-22-20-24-20q-11 0 13 25 15 17 17 23c0 6 20 33 25 33q2 0 3-5m-86-45q-6-6-10-7-4 1 1 7 6 7 10 7 5 0-1-7m-789 129q-3-6-7-5-6 3 0 10c7 9 12 5 7-5M421 1814c10-5 28-11 39-12a105 105 0 0 0 48-20c11-1 33-18 35-26q4-18-13 0c-16 17-83 46-101 43-9-2-49 23-50 30q1 5 42-15m760-24q17-3-6-7-30-3-32 7c0 5 21 5 38 0m94-2c8-12 17-29 21-39q6-21 9-10c2 8 3 8 12-1q7-10 5-15c-5-8-19-6-26 5q-6 8-12 9-7 0-10 24-4 25-12 30-9 6-9 11 1 18 22-14m-1087 10c-3-7-20-12-42-13q-24-2-6 7 11 8 23 6 11-1 14 2c4 6 12 5 11-2m799 25q15-3 24-18 8-15 6-18-3-2-20 8l-19 10 16-14q27-24 6-25-10-1-10-10-1-9-7-12-5-3-3-15 2-10-3-11t-8-14c-3-14-4-15-18-7q-12 7-13 11c0 7 13 16 19 12q4-2 5 2-1 5-8 7c-11 5-8 13 5 13q13-1 12 12 1 11 7 12c9 0 9 0-4 30-6 14-17 31-25 38l-14 13 18-10c10-6 26-12 34-14m233-17q25-8 33-23 15-27-3-10c-15 15-45 31-57 31q-11 0-12 5-1 9 39-3m16 17c5-9-2-11-10-5q-7 6-25 4c-10-2-22-1-27 1q-11 4 25 4c19 1 35-2 37-4m1289-23q-8-21 14-16 20 5 14 20-3 6-10-3-6-12-10 1c-5 8-5 8-8-2m-158-8q-1-7 2-18 5-15 4 7 2 29-6 11m195-3 7-26q3-18 7-4c4 12-3 36-11 39q-7 4-3-9m-279-26q0-15 3-16c4 0 11 19 9 25q-11 20-12-9m-24 3q1 8 5 9 5-1 5-9 0-9-5-10-4 1-5 10m-20 2c-2-2-3-13-3-25 0-11-4-27-8-35q-6-14-4-23 3-9-16-24-16-13-14-15c8 0 25 11 31 20 3 5 10 9 13 9 10 0 5-34-8-56-11-18-4-21 10-3 11 14 22 61 16 70-2 3-4 22-4 41q-2 50-13 41m64-8-5-18q-1-3-8-7c-7-3-10-17-2-17 9 0 24 29 23 42l-2 13zm19-23q0-15 3-8v17q-3 5-3-9m-109 4q-6-5-6-12c0-2-4-15-10-28-5-12-9-23-8-24 5-5 26 34 29 52 3 20 3 20-5 12m129-7-7-20-4-19q-1-9 12 6l12 15-3-15c-4-17-16-42-23-46q-4-4-2-7 5-3 15 5c19 12 37 84 18 72q-5-1-5 4c0 11-9 15-13 5m-71-43c9-38 8-56-2-68q-9-10-10-15l-3-13q-5-10 5-2 14 10 3-14-4-9 0-9 8 1 19 31 7 16-2 10-6-2-7 1 2 10 15 17c9 3 9 1 6-17-2-11-9-32-17-47-11-20-17-26-25-26q-9-1-11-7c0-17-16-43-27-44q-16-2 2-3c28-2 79 72 89 129 6 30 2 48-17 74q-22 29-18 3m-45-29q-5-11-3-14c3-3 13 12 12 18q-3 5-9-4m182-27c-8-9 6-21 15-13q6 5-1 5-6 0-3 8c3 9-4 9-11 0m9-43q0 6 5 7 4 0 4-7t-4-8-5 8m-249-11c-20-8-24-16-9-16q10 0 9-8c-2-11 26-14 34-4q8 9-1 8c-11 0-13 10-5 20q11 9-2 8c-4-1-17-4-26-8m147-13q-7-17-6-20c3-4 18 23 16 31q-3 8-10-11m-114-26q-21-13-7-15c8 0 27 14 27 20q1 10-20-5m177 5c-14-1-21-13-13-18q5-1 10 2 5 6 12 0 5-6 9 3 5 16-18 13m-102-29c-10-11-6-19 6-12 9 6 14 21 7 21q-4-1-13-9m211-16q-15-13-10-18c6-6 26 15 26 27 0 8 0 9-16-9m-63-19q-3-8 0-12 8-4 6 12-2 12-6 0m-271-13c-25-9-65-45-65-58q1-19 25 15c14 21 44 38 66 38 13 0 42-13 47-21q4-3 9-1c9 6-1 18-21 25-30 11-37 11-61 2m157-3q-7-10 4-11 6 0 7 4c0 6-7 10-11 7m30-11c8-8 15-19 15-24q0-9 5-10 3 1 4 5 2 5 9 5 25 1 1 24a43 43 0 0 1-33 14h-17zm-77 3q-19-4-18-13 0-8 5-9 5 0 5 4 1 5 11 5 11 0 15 5 3 5 10 3 7-3 7 4c0 8-9 8-35 1m195-20q-17-10-13-14c6-4 20 3 29 14q14 16-16 0m-439-3c-9-15-14-42-8-42q5 0 7 13c2 7 6 19 10 26 8 15 1 18-9 3m9-24c-9-16-6-38 5-48q6-3 7-1 0 3 8-7c3-5 9-10 10-10 5 0 17 47 13 51q-2 1-9-13l-6-15-7 15q-6 15 0 21c7 6 7 14 0 10q-3-1-4 4c0 13-9 9-17-7m12-24q0-19-5-7c-3 4-4 12-3 15q8 17 8-8M743 1859q-28-14 6-6c19 4 58-1 90-14q8-3 8 5t-11 8c-7 0-21 3-32 7q-37 12-61 0m-29-37q-15-7-19-12-3-8 14 0c9 3 27 7 40 8 13 0 25 1 25 3q4 2 9-3 6-4 10-4 3 1 5-3 0-4-7-5c-11-1-53-21-44-21l25 5q18 4 26 2l12-3 18 3q14 1 18 5 1 3-17 1c-21-3-28 3-11 8q19 8-2 17c-17 7-82 6-102-1m-55-21-17-11q-8-5-3-9c6-6 36 15 36 23q0 11-16-3m-393-7c1-4 47-23 58-23 6 0 3 12-6 20-10 9-55 11-52 3m600 2q2-5 14-13l15-6q-1 3-15 13-12 8-14 6m-207-23q-21-17-6-17c8 0 29 22 24 25q-4 2-18-8m-418-7q1-3 19-7c10-1 21-6 24-10q6-6 15-7c14 0 3 17-16 23-18 6-42 7-42 1m518-7q-56-20-55-28c0-4 19 0 40 8l30 12q15 7 16 13l-1 6zm47 5c-14-10-6-14 11-5q15 7 16 10c0 4-18 1-27-5m-411-5v-10c3-4 27 8 27 13 0 7-24 4-27-3m-174-15q-9-10 11-7c4 0 14-3 21-7 13-7 14-7 16 3 2 12 2 12-22 15q-20 3-26-4m192-3c-12-5-12-5 7-9l27-6q7-3 11 1 1 5-15 12-15 7-18 7zm-53-13q1-5 14-8l33-12c11-5 21-7 22-5 4 7-13 19-35 24-27 6-34 6-34 1m-167-21q1-12 25-13 14-2 2 10c-10 11-27 13-27 3m641-16h17q5 2-9 2-15 0-8-2m-91-9q-16-8-12-12 5-5 19 1c14 6 18 7 30 8q9 0 0 6c-9 6-18 5-37-3m54 3q-14-5 4-5 12 0 13 5 1 8-17 0m21-31q-5-9-17-2c-9 4-13 4-20-2q-9-9-1-9l28-2q21-1 28 5c3 4 10 6 13 4q6-2 10 4 5 5-9 3-12-1-15 1-6 10-17-2m-501-16c-16-4-21-47-5-53q7-3 7 35 0 9 7 15 12 9-9 3m51-9q-2-3-3-10-1-8 9 0 8 5 7 9-5 7-13 1m503-6c0-6 11-13 25-17q15-3 12 3c-2 6-37 19-37 14m-598-20c-11-14-10-16 4-45 6-13 12-26 12-29q1-5 12-15t12-15c0-7 15-11 21-5q5 5-8 16c-20 15-37 52-37 77q-1 37-16 16m123-3c11-21 22-29 52-34 38-7 49-7 42 0-3 3-18 7-32 9-22 3-31 7-45 21q-32 31-17 4m141 4q-9-5 4-9c6-1 21-7 32-13q36-19 8 8c-15 14-34 20-44 14m318 1v-9q3-6-5-7-7 0-8-5 2-3 9-4l17-3q10-5 5 10-4 14 3 9c10-6 21-7 15-2-5 6-33 14-36 11m-355-5q-5-2-6-7c0-7 25-2 28 5 1 6-10 7-22 2m108-28c-5-6-5-11 1-27q6-18 13-22c8-2 7 16-2 23q-6 6-3 20 4 23-9 6m-50-3 22-17q19-15 19-1c0 3-10 9-21 14-23 11-34 13-20 4m260-8q0-8-5-11-8-3 3-10c14-11 23-10 19 1q-3 10 4 10c12 0 9 7-4 13-16 8-17 8-17-3m-498 1c-5-8 20-44 29-44 7 0 7 1-2 11-5 5-12 16-16 24q-8 12-11 9m69-5q-1-10 15-13c38-7 52 2 17 11l-26 8q-6 2-6-6m155-9c13-7 28-16 32-20q8-6 12-4c6 6-18 26-36 31q-45 13-8-7m-193 3c0-5 30-26 47-31q24-9-14 19-34 25-33 12m442-13q-2-3 11-12c16-9 19-10 19-5 0 6-27 21-30 17m-309-6q2-4 9-5c6 0 20-4 33-10 48-21 68-28 68-24 0 6-87 44-100 44q-9 0-10-5m117-24q15-27 46-20c16 3 10 11-9 11q-10 0-10 7c0 6-18 16-30 16q-3-1 3-14m-119-4q0-3 16-7c10-2 35-8 56-15 43-14 40-13 40-8s-48 22-98 33q-10 2-14-3m268-3q-4-7-10-7-8 0-5-5 3-4 12-5 8 1 9 5 1 5 13 5 20 2-6 11-10 3-13-4m-39-15-37-8c-15-2-27-7-27-10q1-3 13 0c7 2 27 4 45 4s32 1 32 3c0 3-11 14-14 14zm-252-16c3-3 14-7 24-8 21-2 75-11 91-15q10-2 11 3c0 3-9 7-18 8l-33 7c-7 3-29 5-47 7-26 3-32 2-28-2m-41-5q-9-6 4-5c7 0 16 3 19 5q9 5-4 5c-7 0-16-2-19-5m8-13q-16-2-18-6c0-2 22-4 49-4q49 1 77-7c32-9 35-11 29-18q-6-4-41 5c-37 10-97 13-109 5q-8-5 30-5c40 0 103-12 103-20q0-5-39-1c-48 4-71 4-85-3-9-3-4-4 24-4 68 1 81 0 81-8q1-8-15-4l-28 4c-6 1-28-1-47-5q-54-11-32-11 14-1 2-14c-5-5 1-5 31-3 33 3 37 3 34-4-3-8-11-11-11-4 0 6-58-4-80-14-17-8-26-9-57-6a192 192 0 0 0-67 14c-9-8 44-39 54-31 6 5 29 2 39-7q6-3 6 2 1 5 7 3 8-3 14 2 7 5 12 2 6-3 2 7-4 11 6 6 9-3 17-10 17-12 8 9-13 23 16 2c20-13 23-14 20-4-4 8 3 9 11 1q5-6 12 1 8 5 21 3 14-5 9 7-4 10 6 9 14 0 11 21 1 2 14 3 18-1 9 7-7 8 3 7 9 0 2 6-10 14 18 13 17 0 12 6-2 5 8 1 12-4 8 7-6 22 49 21c25-1 33-4 43-13 10-8 16-10 30-9q30 4 8 15c-10 5-10 5 8 5q34-1 43-30c4-16 12-21 12-8q0 9-5 12-5 4-5 16v13l14-16q16-15 15-32-1-19 7-14 7 4 7-13c0-22 11-9 12 15l5 33q3 17-4 15-7-1-10-10l-4-11-7 11a78 78 0 0 1-94 27c-12-6-15-6-33 1q-42 15-86-3l-22-10-30 10c-30 10-95 18-129 15m48-82q7-4-18-6-33-3-21 7c5 5 32 4 39-1m418 61q-1-4 3-13c2-5 4-15 4-22 0-15 8-20 14-9q6 13 6-3c0-7-3-20-5-29-7-25-14-120-9-129q12-21 14 11v20l11-11c11-11 20-8 12 4q-3 8 1 14 6 6 0 11-6 7-5-2 0-8-10-8c-11 0-13 13-2 17q9 2 0 10c-10 9-9 20 1 20q11-2 0 9c-10 11-11 25-1 25 8 0 9 7 1 11q-7 3-1 6c11 8 12 32 4 49-9 17-32 28-38 19m-29-3q-19-3-4-17 6-8 7-17-2-13 10-4c9 6 12 20 6 34q-2 7-6 7zm-663-47-12-12 13-14q12-13 20-14 9 0-3 11c-13 14-13 16 0 27q13 9 2 11-7 2-20-9m790-140c0-3 9-8 19-14 20-10 53-14 53-5q-1 3-13 2-13-3-36 9-21 10-23 8m-5-24c12-9 51-18 56-12 2 1-6 3-16 5s-23 6-29 10c-15 10-24 8-11-3m72-10c4-1 15-2 24 0q26 5-7 5-25 0-17-5m91-2c26-9 28-9 17 0-5 4-16 7-24 7q-21 1 7-7m-163-12q8-4 17-5 12 0 2 5c-3 3-11 5-16 5q-11 1-3-5m-14-14c0-5 27-14 43-14q17-1-5 5l-25 9q-14 9-13 0m406 112c0-6 6-7 28-7 28 0 41 6 26 11-4 2-18 3-31 3-18 0-23-2-23-7m107-19q16-11 10 2-4 5-11 5-12 1 1-7m137-79 6-22q4-11-2-11-5 0-5 5-1 4-4 4c-3 0 1-12 7-27 7-15 14-38 15-50q3-21 6-26c7-4 6 38-1 45-2 2-6 21-8 40-1 20-5 39-9 45q-9 14-5-3m-800-180q-4-4-9-4t-7-8c-2-10 8-11 11-1q3 7 15 4 13-3 10 4c-2 7-14 11-20 5m-12-109q1-6 7-4 7 4 7 7 0 5-7 5-6-1-7-8m-339-62q-7-7-1-12c7-7 15-1 15 11q-1 16-14 1m36-34q-6-9 4-11c3 0 12-3 19-7q22-12 16 4c-2 6-34 18-39 14m-203-6q-7-5-18-5c-14 0-17-6-23-60-3-31 7-48 42-65 30-16 40-16 56-4l12 10h-44q-5 1-6 7 0 7-14 7c-16 0-20 4-25 31q-3 19 3 31l10 22c3 9 3 9 12-3l9-12v17l1 17 9-12q18-21 8 8-8 26-32 11m105-6q2-6 17-14c14-7 16-7 16-2 0 8-17 22-27 22q-5-1-6-6m-12-15q3-11-5-17-15-12 7-16 31-2 21 23c-3 6-11 14-16 17q-13 8-7-7m123-13q22-16 23-2-1 5-11 9-30 8-12-7m-154-11a7 7 0 1 0 14 0 7 7 0 0 0-14 0m134-7c0-4 16-10 28-10q9 0-2 7c-10 8-26 10-26 3m-94-42q-10-3-21-14l-12-12 12 3c12 3 44 27 35 26zM94 663q-13-13 5-12c12-1 24 7 20 13s-18 5-25-1m1022-7q-6-3-7-10 1-6 7-7c25-2 29-1 29 8s-16 14-29 9m-881-11c-5-4-8-12-8-15q-1-6-7-14c-4-5-11-24-15-44-6-27-6-40-2-59 3-13 7-38 8-56q2-31 9-34c11-4 11 67 1 84q-9 13-4 25c3 7 6 23 7 37 3 32 7 42 14 39q6-3 9 14l6 24c5 11-8 11-18-1m1014 1c15-3 29-16 16-16q-13 1-3-14 6-9 5-1 0 9 7-2 6-10 13-3 15 13 10-17c-3-17-2-17 6-11q7 7 11 5 3 0 13 16a188 188 0 0 0 31 44 584 584 0 0 1-109-1m79-28q-9-15-12-14c-4 3 14 36 18 33 3-1 0-10-6-19m-171 15q0-16 5-9 6 6 0 14-5 13-5-5m59 4q-2-7-1-17 1-12 16-12c27 0 30 22 4 30q-18 6-19-1m170 4c0-6-23-30-29-30q-3 2 4 12c8 13 8 13-2 8-13-7-40-51-40-64q0-13 11 10c11 21 23 31 23 20q-1-7-10-18-10-12-4-19 5-5-2-20-11-20 2-20 4 2 8 14c3 8 17 31 32 53 24 34 26 39 21 47q-12 16-14 7m-14-43q-2-5-14-20l-15-17 11 20c9 19 18 27 18 17m-897 35c0-7 8-15 12-11 4 3-3 18-8 18q-4 0-4-7m-390-5v-10c4-5 23 7 20 13-4 6-17 5-20-3m1317-21c-16-20-47-81-43-85q7-6 28 37c5 11 15 27 22 34 10 14 14 28 7 27q-4-1-14-13m256 11q0-4 5-11c2-5 5-17 6-27 1-17 10-23 15-9 6 14 3 30-7 40-9 9-19 13-19 7m144-6q-6-10 0-13c8-5 16 5 10 15q-4 12-10-2m-1296-5q-13-7-16-11-3-3-12-1-12 4-15-9-2-12-7-4-5 10-5-2-1-10 11-10 10 1 17 4 8 8 6-12-1-7 3-8a99 99 0 0 1 33 61zm1331-3q-9-13-3-18 4-5 13 8t3 18q-4 5-13-8m-767-27c-14-17-32-40-39-51-7-12-19-26-26-32q-12-10-9-19c5-11 12-5 43 42 15 21 36 48 46 58 19 18 25 31 15 31-2 0-16-13-30-29m50 12-34-40c-12-12-30-32-39-44s-21-23-26-26c-11-5-16-25-5-25q6 1 10 9c1 4 13 18 25 30 13 11 26 27 29 35 6 12 7 13 12 5q10-17 15 4c2 10 4 11 21 9 17-3 18-2 32 21 9 13 14 25 13 27-2 1-13-6-23-16-31-29-42-26-19 4 21 29 12 35-11 7m445 7 6-24c5-25 20-13 20 15q1 14-10 16c-18 5-20 4-16-7m194-1q-9-10-10-14c0-6 13-3 24 5q13 9 3 15-6 7-17-6m-349-16c-21-28-41-68-36-72q4-3 9 5l12 17q7 11 3-5c-4-18 6-14 21 8 6 10 18 24 26 31q16 15 9 20-4 9-25-13-21-20-14-7l13 18c6 8 8 20 2 20-2 0-11-10-20-22m85 20c-3-3 5-29 12-40 7-10 14 0 10 18-3 19-14 30-22 22m490-3q-3-5-1-7c3-4 13 2 13 8s-8 6-12-1m15-6q-3-13 7-10c6 4 5 17 0 17q-4 0-7-7m-825-25q-23-43-5-30c9 8 22 37 19 47q-3 6-14-17m-743 8c0-12 7-13 11-2 5 10 4 11-4 11q-7-1-7-9m782-11c-13-23-12-38 3-28 6 3 15 44 10 44-2 0-7-8-13-16m37 10c-6-19-7-33-4-33 4 0 15 25 15 34 0 7-9 5-11-1m700-9c-13-9-29-8-36 1q-3 3-12-7c-8-10-29-22-38-22q-2 1 1 9 3 10-5 10-6-1-7-10 1-10-14-9c-14 0-23-7-18-13 6-5 72 9 88 18q15 9 23 7c8-3 32 8 38 16 5 9-6 9-20 0m-679-12q1-11 4-9 5 3 5 12 0 8-5 9-3-1-4-12M99 549q-6-10-4-12c4-5 27 8 25 13-3 10-15 9-21-1m1333-17c-17-23-25-47-10-35 10 7 31 48 30 54q-3 2-20-19m-599-9q-5-7-4-16 1-10 10 8c8 15 4 21-6 8m17 0q-3-6 2-10 4-3 1-9-1-6 2-7 4 1 10 13c4 12 3 15-2 17-10 4-10 4-13-4m-36-11q-1-8-6-14-5-5-3-12 2-4 11 12c9 22 9 22 2 22q-3 0-4-8m-478-34c-2-5-4-17-4-25l1-16 7 17c4 9 10 20 14 25q11 9-2 8-10-1-16-9m704-9c-15-15-21-30-13-30 5 0 39 37 39 43q0 14-26-13m289 15q-11-3-17-7l-22-6c-18-4-26-17-11-17q7-1 7-10t10-10q8 0 9-4 1-5 7-5 9-2 5 16c-2 14-1 16 15 24 25 14 23 23-3 19m148-5c-14-3-31-11-36-16q-19-18-24 0c-4 13-12 7-12-10q-2-22-17-9c-5 5-21 1-21-5 0-2 9-7 19-10 16-5 25-5 54 2 19 5 41 8 49 8 22 0 7-8-21-11l-30-5c-2-2-21-4-42-4q-56-1-29-16 7-7 22 1c7 4 21 7 30 7 10 0 35 3 57 7s41 6 43 5c3-4 20 6 20 11q-1 5-7 5c-8 0-14 13-7 17q5 4-1 10-6 7 5 7 9 1 10 4-1 5-12 5l-18 2c-3 2-18-1-32-5m28-11c-3-3-11-5-16-5q-11 0-3 5 8 4 17 5 12 1 2-5m-2-14c-18-7-58-12-52-6 4 5 23 8 47 9q18 2 5-3m135 30c-6-6-4-21 3-21 10 0 19 9 16 16-3 8-14 10-19 5M108 467q-5-6-5-12-1-8 14 2 13 8 14 12c0 6-16 4-23-2m963-5q-30-28-25-34c5-3 44 33 44 40q0 11-19-6m-715-16q0-15 4-16c6 0 12 21 7 28q-10 14-11-12m744 5c-17-12-27-25-23-29 5-4 42 28 42 35 0 8 1 8-19-6m-983-15q-12-30 7-9 20 24 5 22-7-1-12-13m294-2-15-23c-7-12 11 3 23 20 13 19 7 22-8 3m-261-1q1-12 5-13 5 1 5 9 0 9-5 13-5 2-5-9m960-8q-23-22-9-24 13 2 27 23 16 31-18 1m-864-19q2-9 17-23c15-11 22-13 43-12 14 1 26 0 26-2l-10-32c-6-15-9-35-8-43 1-13 2-12 7 11 7 29 25 64 42 77 21 16 10 21-12 5-7-5-15-8-16-6l-31 5c-23 3-28 5-33 17-8 15-25 18-25 3m1660-10c0-12 19-22 25-14q12 22-10 22-16 0-15-8m-360-16-33-15q-13-5 5-6c16-1 64 19 64 28q1 11-36-7m-1012-2c-18-11-31-28-30-41q-1-14 5 1 5 10 10 11 3 0 4 6c0 4 7 13 15 19q27 22-4 4m198-10q1 3 8 4 6 0 7-4 0-5-7-5t-8 5m582-31c-20-16-37-32-37-35-1-10 7-6 40 23q41 35 35 40c-1 1-18-12-38-28m149 13-36-17q-5-2-2-6c5-5 41 10 59 23q31 26-21 0m-1306 0q-6-5-2-11 4-9 8 1 5 16-6 10m21-2q-8-5-9-19c0-20 13-18 17 3 3 20 3 22-8 16m16-25c-5-6-2-27 5-27q3 1 4 12 0 11 5 12 4 0 4 5c0 6-12 5-18-2m1174-8q2-5 6-5 5 0 6 5t-6 5-6-5M224 303c-2-6-2-14 0-15 3-4 17 13 17 21 0 11-14 6-17-6m1-27q-7-22 2-15 4 6 4 14-2 13-6 1m19-17q-15-16-2-15c7 0 23 14 23 20 0 7-13 3-21-5m1121 0c-15-3-27-16-27-29q-1-17 8-3 6 9 7 4 1-16 16 11c9 19 9 20-4 17m34-5c-13-14-9-23 4-10q18 18 8 19-4-1-12-9M252 228q-12-12 1-13 7 1 7 10 1 15-8 3m19-11q-11-8-11-20v-13l14 14c22 21 19 35-3 19m450-14c4-9 19-18 23-13 4 4-12 20-19 20q-6-1-4-7m-10-18q-8-18 21-17 15 0 10 3-8 3-18 12-12 13-13 2m74-51c0-7 12-11 22-8q15 4-9 10-12 3-13-2m-46-8q-3-8 8-16c13-10 17-10 40-5 15 4 14 4-9 10-13 4-24 9-25 13q-6 12-14-2m22-41c7-9 38-12 38-4q-1 5-10 5l-23 3q-16 5-5-4m206 814-15-26q-7-14 11 6c10 10 18 22 18 25q1 16-14-5m-32-51-24-12h17c15 0 38 12 38 20 0 5-6 3-31-8m191 1519v-10q3-5-9-1-13 2-12-5 0-7 17-9 30-7 16 8c-7 9 0 10 13 3 7-3 8-9 7-31l-2-27h-17q-15 0-13-4 4-5 15-5 12 0 11-9c0-9 12-21 24-26 14-5-13-3-37 2-21 5-30 4-66-5-31-8-48-10-68-8-27 3-27 3-43-14l-17-18 16 3 21 3q3 1-1 7c-9 11 5 14 26 6 9-5 22-7 28-5q12 1 21-2 11-6 12 2 4 7 9 4t9 3q3 7 16-2 21-11 6 5c-7 8-1 12 10 9q10-4 16-22c7-26 16-24 13 2l-3 22 23-17 26-17q3 2 0 15-5 26 20 4 12-12 11-3c0 4-12 15-26 26a68 68 0 0 0-27 27q-2 20 31-14 40-37 6 9c-14 18-16 22-9 25 9 3 63-3 63-7q-1-4-12-10t-9-13-6-18c-6-10-7-13-1-20l15-25c5-9 16-21 24-27 17-11 64-26 67-22l19 4q15 2 30-13 15-14 24-13 12 1-6 10-15 9-21 18c-5 8-8 9-39 6-27-2-39-1-49 5-19 10-41 30-41 38q0 7-7 10-9 2-3 9t6 14c-2 12 5 27 17 35q22 14-2 27c-10 6-22 6-55 2-23-2-43-3-45-1q-3 4 2 11 5 9 8 23c3 12 2 15-7 20-18 8-41 12-45 6m184-5c17-6 29-6 26 0-1 3-11 5-20 4q-23 1-6-4m-220-30c4-4 15-8 24-10q21-5 10 4c-4 4-15 9-24 10q-21 6-10-4m-295-3q-11-4 7-16c14-12 24-13 13-2q-15 15 10 11c8-1 20-8 26-16q16-19 3 11-3 7 7 7 10-1 24-20t14-11-9 20q-9 11-8 15c4 5-80 6-87 1m541 0q-1-5 7-5 9 0 10 5 0 5-7 5-6 0-10-5m-597-18c-11-4-7-11 5-11 7 0 18-5 25-12 15-14 17-13 14 4-4 15-29 26-44 19m587-5h16q7 3-8 3-14 0-8-3m43-6c3-4 33-14 45-14q5 0 3 5-3 4-14 4-11 1-14 5-4 5-13 5-8 0-7-5m-663-9q5-11-7-7-19 5 2-16t16 1q-4 14 9 12 11-1 18-10c8-12 15-9 10 4-3 9-31 25-43 25q-8 0-5-9m637-6c11-2 23-6 27-9q6-4 15-4c11 3-35 19-51 18q-12 0 9-5m-697-19q6-7 19-15l15-9-5 12q-6 11-16 15-22 6-13-3m1313-37q-9-5 7-5c8 0 19 2 24 5q12 4-7 4c-9 0-20-2-24-4m7-20q-51-8-54-17c0-3 15-1 37 5 35 9 42 9 68 3 17-3 41-11 54-16 20-9 27-16 35-33 5-11 10-25 10-29q0-9 7-7c8 4 17-16 22-51 10-56 12-66 18-68 13-5 29 52 20 73q-4 12-5-12c0-24-12-51-16-38l-4 23c-6 48-15 75-28 92-8 10-14 22-13 25q1 13-56 40c-23 12-63 16-95 10m-477-7 24-17c11-10 21-12 21-3s-22 23-42 26l-18 2zm114-2 27-6q22-6 7 4c-5 3-17 7-26 6q-19 0-8-4m-47-5q-2-4 6-5 9 1 13 5 1 5-7 5-9 0-12-5m-93-9q0-4 13-9l21-8q8-3 8 2t-8 9c-14 7-34 11-34 6m552 1c16-3 60-27 62-33q1-6-24 5a97 97 0 0 1-66 12q-17-5 3-4c20-1 36-6 36-11q-1-3-10-1t-10-1c0-7 11-16 21-16q10-1 7 10-3 9 3 8 5-3 7-13 1-10 9-13 7-3 11-13 4-12 4-2c1 9 10 12 10 4q0-5 5-5 5 1 5 13-1 17 6 5 6-8 10-8 10-1-17 31a83 83 0 0 1-67 35q-17-2-5-3m-440-10q-13-3-9-7c2-2 11-2 19 1 7 2 19 1 26-2 12-4 24-1 18 5-4 4-40 6-54 3m-446-29c0-16-8-23-16-15-10 9-15 5-6-5s26-13 26-4c0 2 6 10 13 16l12 12-12 5c-18 7-17 7-17-9m314 9q1 5 10 5t10-5q-1-5-10-5t-10 5m-948-2c1-2 20-5 42-8 22-2 46-5 53-7q12-1 16 2c1 2-20 6-46 10-53 5-69 6-65 3m735-16q-18-12-20-16 1-4 17-4c13 0 20-4 31-15q23-27 6 13-15 37 11 19 11-7 14-6c3 3-27 22-34 22-2 0-14-6-25-13m302 4c-4-6-1-7 17-5q14 0 23-5 18-9 2 7c-8 8-38 10-42 3m371-1q-1-6 8-15 12-15 10-1t10-2q8-10 12-9c5 6 16-6 16-16s7-12 12-3q4 6 9-2 5-6 15-11 9-6 11-15 3-27 11-17 5 6 15-3 12-12 6 5-4 21 10 8 7-8 6 5v11l12-11c15-13 21-9 10 8q-12 20-34 5c-11-7-31-3-31 7a162 162 0 0 1-72 47c-3 7-32 14-36 9m-97-4q1-4 11-5c6 0 16-5 22-11 11-11 29-13 29-2q1 5 7 2t7 2 8 4q7 1 5 7-3 4-15 4c-32-3-39-2-56 1q-18 4-18-2m-102-16-22-12 15-5c17-6 26-2 18 8-5 6-4 6 11 3q28-4 12 11c-7 8-6 8-34-5m-602-10q13-11 17-10c2 3-20 21-26 21q-4-1 9-11m133-14q17-13 18-3 0 5-5 5l-13 3q-12 4 0-5m433 3c0-5 19-17 22-14 5 6-3 18-13 18q-8-1-9-4m-277-10c0-5 11-10 23-10q10-1-2 7c-10 7-21 9-21 3m267-10c0-6 19-10 22-5q1 4-6 7-15 5-16-2m449-7q0-6 7-15t7-43c0-31 1-33 8-24 10 14 7 59-6 76q-15 21-16 6m-716-8c10-6 24-6 24 0q-1 5-15 5-17 0-9-5m243-9q1 4 15 5 13-1 14-5-1-5-14-5t-15 5m462-2c-6-13-5-25 2-19q4 6 3 17-1 15-5 2m-729-2q0-4 8-8c12-4 49-3 49 2q-1 5-13 5c-8 0-21 1-29 3q-14 3-15-2m255-15q4-5 13-5 8 0 9 5-1 4-13 4-10 0-9-4m-231-10q-7-5-1-5 5-1 6-4-1-5-16-2-17 5-10-3 8-6 23-8 18-2 22 8 5 8 13 9c4 0 12 3 15 5q9 6-19 5c-14 0-29-2-33-5m308-8q-20-24 12-40c10-5 23-14 28-20 16-16 11-1-5 18q-13 15-11 17c9 0 32-23 40-40q8-18 10-11c0 5-5 16-10 25q-16 27 2 20c8-4 27-38 27-49q0-7 5-7 3 1 4 12 0 13 7 10t8 2q-1 4-8 8c-5 2-21 15-35 30-21 22-30 28-46 30q-21 4-28-5m24-6q1-5-7-5-10 0-10 5 1 5 7 5t10-5m-289-10q1 5 14 5t15-5q-1-3-15-4-13 0-14 4m358-6q1-7 7-13 12-8 4 12c-4 9-11 10-11 1m286-19c0-19-1-21-9-19-14 4-13-9 2-26l12-13-3 14-3 14 10-12q9-14 10-31c0-16-3-21-14-30q-13-9-22-10-6 0-4-5c5-8 23-5 36 8q21 21 9-10-4-11 0-15c6-3 19 19 21 37 1 9 5 27 9 40 9 27 10 45 3 45q-4-2-4-15c-1-9-5-24-10-33-9-15-9-16-10-4-3 34-1 46 5 56q11 14-6 5c-13-6-17-16-8-21q4-3 2-8c-6-9-16 11-16 30 0 10-2 20-5 21q-5 2-5-18m-35-41c-4-3 11-20 19-20 9 0 2 18-8 21q-8 2-11-1m-113-43q1-19 7-21 12-3 5 29c-5 17-12 13-12-8m-404-8c13-10 26-9 18 0q-7 7-17 8c-10-1-10-1-1-8m-19-17q13-8 17-6c4 3-13 16-22 16q-6 0 5-10m521-27q-1-6 10-15c7-5 11-13 10-16q-1-7 3-12 6-6 15 3 9 11 2 12t2 12c11 12 8 18-5 10-8-5-12-5-22 2q-11 7-15 4m-478-4c-12-3-25-16-16-16 10 0 43 12 43 15q0 6-27 1m44-24q20-48 26-52c9-5 5 15-9 41-15 30-28 39-17 11m-219-18c10-11 20-21 22-21 6-1-7 28-17 35q-32 19-5-14m436-6q1-5 7-14 8-10 7-1-1 7-7 14-6 4-7 1m153-4c0-12 20-31 31-30 17 2 16 10-2 14-8 2-18 7-22 12q-6 8-7 4m28 1c0-7 17-17 27-17q24 1-4 13-24 9-23 4m-518-20c11-10 13-17 18-56 6-58 7-64 16-67q9-4 5 6c-5 14 6 12 22-3l13-13v16q-1 17 9 14 21-2 11 8-15 12 17 14c10 0 21 2 24 4q5 3 9-2c4-7 12-5 12 3 0 12-17 17-40 12-27-6-26-6-29 6-3 9-4 7-11-13-8-25-7-26-19 4q-4 13-6-12l-3-21-11 17c-14 22-17 36-11 50 8 18 7 20-14 33-23 15-30 15-12 0m-156-5q15-18 16-8c0 4-18 20-22 20q-2-1 6-12m617 6q0-22 19-22h13l-13 14q-21 23-19 8m-298-7q-10-6 15-17c14-6 20-13 30-33 12-27 19-22 9 8-5 14-12 22-29 32-12 7-23 12-25 10m202-5c0-8 19-21 28-19q10 1-10 12c-9 6-18 9-18 7m304-28c-9-10-10-21-3-21q4 1 7 10t8 10q3 0 4 4-1 11-16-3m-394-19q0-17 5-4 4 13 4-6c0-21 8-23 12-3s4 19-10 23c-10 3-11 2-11-10m34-3q2-12 6-13c8 0 6 21-1 23q-7 2-5-10m334-4c3-9 14-10 14-2q-1 7-8 7t-6-5m-1113-26c-3-45-3-59-1-72q2-15 7-16c8 0 10 43 3 70q-7 26-9 18m1044-16q-3-3 4-7c7-3 14 3 8 9q-7 6-12-2m-22-5q-7-4-4-8c5-4 18 2 18 8q0 9-14 0m-438-3c-13-5-5-11 13-11q20 0 18 6c-2 6-21 9-31 5m416-1c-3-6 4-11 9-7 4 4 4 11-1 11q-5 0-8-4m-820-22q-3-11 1-23 5-15 7 10c1 23-3 31-8 13m388 7c0-4 24-12 28-8q1 3-11 8c-15 6-17 6-17 0m-207-19c-4-4-9-17-10-27q-4-20 2-11c3 3 5 10 5 13 0 4 6 14 13 21q14 14 5 13c-3 0-11-3-15-9m194 4q3-7 11-8 11-4 3 6c-8 9-16 10-14 2m-294-11a140 140 0 0 1-5-48l8 30c5 20 3 33-3 18m422-72c-15-15-16-17-9-24s10-7 22-2q14 7 12 13c-2 6 1 7 19 5q21-2 23 2c0 4-40 23-48 23q-4-2-19-17m-572-25q-6-1 11-25c9-13 17-26 17-30l9-25c8-17 16-23 37-33 41-20 52-15 11 6l-35 18-5 27q-6 27-18 40l-11 13 24-4q40-5 40-35 0-12 22-32c32-32 51-39 95-40 78-1 85-1 93 6 6 5 40 17 50 17q2 0 3-5c0-13 33-29 61-31 15 0 37-3 49-6q47-12 76 5l17 9-24-4c-30-4-78-4-82 1q-3 4 11 17c14 12 14 13 5 13-5 0-13-3-16-7q-6-8-25-8-21 1-20-6 2-18-37 18c-31 27-34 27-72 3-24-14-26-14-47-9-13 3-37 5-54 4s-35 0-39 3c-25 12-37 62-18 74 11 6 13 27 4 24-3-2-12-10-17-19-9-13-11-20-9-36v-21c-5 0-14 25-16 45-2 22-4 24-17 28-18 5-65 8-73 5m155-7c-8-11-10-23-4-23 4 0 16 29 13 32q-2 2-9-9m32-8q-6-9-4-17 4-9 10 5c11 21 6 31-6 12m25-15q-3-15 1-20 6-6 6 14 0 36-7 6m333 4q2-5 11-6 7 0 15-4 5-3 6 0c0 5-21 16-30 16q-4-1-2-6m-89-19c-15-17-7-26 9-9q9 10 19 5c13-5 36-49 30-56-9-8 3-11 17-3 7 3 17 7 22 7q9-1 6 9-5 16 13 5 10-6 9 2 0 14 23-1 13-8 14-2 3 5 10 2 8-4-4 12c-14 19-26 25-22 11q2-16-9-5l-16 7q-14 5-9-4 4-8-6-8-8 1-12 5-3 5-10 5-6 0-4-12 6-14-9-9-12 3-17 16c-12 31-37 43-54 23m-37-6q25-13 14 0-6 7-16 7-14 0 2-7m-51-17c3-12 26-25 45-27l18-1-17 7-33 18q-15 9-13 3m344-5c8-5 8-6 0-11-7-6-7-7 7-13q13-7 15-12c0-3 5-18 12-33 11-29 11-29 12-11q0 17-5 21-4 2-5 11t-7 15-7 13c0 10 22-7 31-25l11-22c3-3 9-16 15-28l10-22-3 19c-4 34-29 75-53 90-11 7-26 13-31 13q-15 1-2-5m-727-28c5-18 15-32 36-52 24-23 20-14-6 15-11 14-22 30-24 38q-2 12-7 13-2-1 1-14m716-8 14-23q7-17 9-6 1 10-14 24-14 13-9 5m-113-5q-6-3-7-7 1-5 8-2 7 1 19-5c14-9 17 0 3 10-9 7-14 8-23 4m41-9q1-6 7-7t12-7c7-8 19-10 19-3 0 5-27 24-34 24q-4 0-4-7m57-5q6-6 11-7 4 1-1 7-5 7-11 8-4-1 1-8m-644-44c0-5 12-10 20-10q5 0-1 7c-6 7-19 9-19 3m480-27q3-6 13-12c6-3 18-16 27-30 23-34 32-42 45-42 30 0 56-30 63-71q3-20 7-14 10 17-6 50a80 80 0 0 1-56 49c-22 7-29 12-48 37-11 16-26 32-32 35q-19 10-13-2m269-8 15-59a545 545 0 0 0 18-95c6-4 9 24 4 47-7 32-29 103-33 106zm19-211q-10-29 3-6 7 12 5 16-3 1-8-10"/></svg>